<svg version="1.1" viewBox="0.0 0.0 463.0 286.0" fill="none" stroke="none" stroke-linecap="square" stroke-miterlimit="10" width="463" height="286" xmlns:xlink="http://www.w3.org/1999/xlink" xmlns="http://www.w3.org/2000/svg"><path fill="#ffffff" d="M0 0L463.0 0L463.0 286.0L0 286.0L0 0Z" fill-rule="nonzero"/><path stroke="#cccccc" stroke-width="1.0" stroke-linecap="butt" d="M158.5 70.5L158.5 219.5" fill-rule="nonzero"/><path stroke="#cccccc" stroke-width="1.0" stroke-linecap="butt" d="M251.5 70.5L251.5 219.5" fill-rule="nonzero"/><path stroke="#cccccc" stroke-width="1.0" stroke-linecap="butt" d="M345.5 70.5L345.5 219.5" fill-rule="nonzero"/><path stroke="#cccccc" stroke-width="1.0" stroke-linecap="butt" d="M439.5 70.5L439.5 219.5" fill-rule="nonzero"/><path stroke="#333333" stroke-width="1.0" stroke-linecap="butt" d="M76.5 219.5L448.5 219.5" fill-rule="nonzero"/><path stroke="#cccccc" stroke-width="1.0" stroke-linecap="butt" d="M76.5 182.5L448.5 182.5" fill-rule="nonzero"/><path stroke="#cccccc" stroke-width="1.0" stroke-linecap="butt" d="M76.5 145.5L448.5 145.5" fill-rule="nonzero"/><path stroke="#cccccc" stroke-width="1.0" stroke-linecap="butt" d="M76.5 107.5L448.5 107.5" fill-rule="nonzero"/><path stroke="#cccccc" stroke-width="1.0" stroke-linecap="butt" d="M76.5 70.5L448.5 70.5" fill-rule="nonzero"/><clipPath id="id_0"><path d="M76.3 70.36667L448.7 70.36667L448.7 219.7L76.3 219.7L76.3 70.36667Z" clip-rule="nonzero"/></clipPath><path stroke="#4285f4" stroke-width="2.0" stroke-linecap="butt" clip-path="url(#id_0)" d="M76.3 100.96402L160.39032 97.52413L448.7 95.82143" fill-rule="nonzero"/><path stroke="#ea4335" stroke-width="2.0" stroke-linecap="butt" clip-path="url(#id_0)" d="M76.3 115.62617L160.39032 101.4156L448.7 90.59909" fill-rule="nonzero"/><path stroke="#fbbc04" stroke-width="2.0" stroke-linecap="butt" clip-path="url(#id_0)" d="M76.3 101.91557L160.39032 93.83201L448.7 88.15854" fill-rule="nonzero"/><path fill="#000000" fill-opacity="0.0" clip-path="url(#id_0)" d="M79.3 100.96402C79.3 102.62087 77.956856 103.96402 76.3 103.96402C74.64314 103.96402 73.3 102.62087 73.3 100.96402C73.3 99.30717 74.64314 97.96402 76.3 97.96402C77.956856 97.96402 79.3 99.30717 79.3 100.96402Z" fill-rule="nonzero"/><path fill="#000000" fill-opacity="0.0" clip-path="url(#id_0)" d="M163.39032 97.52413C163.39032 99.180984 162.04718 100.52413 160.39032 100.52413C158.73347 100.52413 157.39032 99.180984 157.39032 97.52413C157.39032 95.86727 158.73347 94.52413 160.39032 94.52413C162.04718 94.52413 163.39032 95.86727 163.39032 97.52413Z" fill-rule="nonzero"/><path fill="#000000" fill-opacity="0.0" clip-path="url(#id_0)" d="M451.7 95.82143C451.7 97.47829 450.35684 98.82143 448.7 98.82143C447.04315 98.82143 445.7 97.47829 445.7 95.82143C445.7 94.16457 447.04315 92.82143 448.7 92.82143C450.35684 92.82143 451.7 94.16457 451.7 95.82143Z" fill-rule="nonzero"/><path fill="#000000" fill-opacity="0.0" clip-path="url(#id_0)" d="M79.3 115.62617C79.3 117.28302 77.956856 118.62617 76.3 118.62617C74.64314 118.62617 73.3 117.28302 73.3 115.62617C73.3 113.969315 74.64314 112.62617 76.3 112.62617C77.956856 112.62617 79.3 113.969315 79.3 115.62617Z" fill-rule="nonzero"/><path fill="#000000" fill-opacity="0.0" clip-path="url(#id_0)" d="M163.39032 101.4156C163.39032 103.07246 162.04718 104.4156 160.39032 104.4156C158.73347 104.4156 157.39032 103.07246 157.39032 101.4156C157.39032 99.75875 158.73347 98.4156 160.39032 98.4156C162.04718 98.4156 163.39032 99.75875 163.39032 101.4156Z" fill-rule="nonzero"/><path fill="#000000" fill-opacity="0.0" clip-path="url(#id_0)" d="M451.7 90.59909C451.7 92.25595 450.35684 93.59909 448.7 93.59909C447.04315 93.59909 445.7 92.25595 445.7 90.59909C445.7 88.94224 447.04315 87.59909 448.7 87.59909C450.35684 87.59909 451.7 88.94224 451.7 90.59909Z" fill-rule="nonzero"/><path fill="#000000" fill-opacity="0.0" clip-path="url(#id_0)" d="M79.3 101.91557C79.3 103.572426 77.956856 104.91557 76.3 104.91557C74.64314 104.91557 73.3 103.572426 73.3 101.91557C73.3 100.25872 74.64314 98.91557 76.3 98.91557C77.956856 98.91557 79.3 100.25872 79.3 101.91557Z" fill-rule="nonzero"/><path fill="#000000" fill-opacity="0.0" clip-path="url(#id_0)" d="M163.39032 93.83201C163.39032 95.48887 162.04718 96.83201 160.39032 96.83201C158.73347 96.83201 157.39032 95.48887 157.39032 93.83201C157.39032 92.175156 158.73347 90.83201 160.39032 90.83201C162.04718 90.83201 163.39032 92.175156 163.39032 93.83201Z" fill-rule="nonzero"/><path fill="#000000" fill-opacity="0.0" clip-path="url(#id_0)" d="M451.7 88.15854C451.7 89.81539 450.35684 91.15854 448.7 91.15854C447.04315 91.15854 445.7 89.81539 445.7 88.15854C445.7 86.501686 447.04315 85.15854 448.7 85.15854C450.35684 85.15854 451.7 86.501686 451.7 88.15854Z" fill-rule="nonzero"/><path fill="#000000" d="M200.42188 268.7L200.42188 260.10626L201.57812 260.10626L206.09375 266.85626L206.09375 260.10626L207.1875 260.10626L207.1875 268.7L206.01562 268.7L201.5 261.95L201.5 268.7L200.42188 268.7ZM213.375 268.7L213.375 267.77814Q212.64062 268.84064 211.39062 268.84064Q210.84375 268.84064 210.35938 268.6375Q209.89062 268.41876 209.65625 268.10626Q209.42188 267.77814 209.32812 267.3094Q209.26562 267.0125 209.26562 266.325L209.26562 262.48126L210.32812 262.48126L210.32812 265.9344Q210.32812 266.7469 210.39062 267.04376Q210.48438 267.45 210.79688 267.7Q211.125 267.9344 211.60938 267.9344Q212.07812 267.9344 212.48438 267.7Q212.90625 267.45 213.07812 267.02814Q213.26562 266.60626 213.26562 265.8094L213.26562 262.48126L214.3125 262.48126L214.3125 268.7L213.375 268.7ZM216.29688 268.7L216.29688 262.48126L217.23438 262.48126L217.23438 263.35626Q217.53125 262.8875 218.01562 262.6219Q218.5 262.34064 219.125 262.34064Q219.8125 262.34064 220.25 262.6219Q220.70312 262.90314 220.875 263.41876Q221.625 262.34064 222.79688 262.34064Q223.73438 262.34064 224.21875 262.85626Q224.71875 263.35626 224.71875 264.4344L224.71875 268.7L223.67188 268.7L223.67188 264.77814Q223.67188 264.15314 223.5625 263.8719Q223.46875 263.59064 223.20312 263.41876Q222.9375 263.2469 222.5625 263.2469Q221.90625 263.2469 221.46875 263.6844Q221.04688 264.1219 221.04688 265.09064L221.04688 268.7L219.98438 268.7L219.98438 264.65314Q219.98438 263.95 219.71875 263.60626Q219.46875 263.2469 218.89062 263.2469Q218.4375 263.2469 218.0625 263.48126Q217.6875 263.71564 217.51562 264.16876Q217.34375 264.6219 217.34375 265.46564L217.34375 268.7L216.29688 268.7ZM228.26562 268.7L227.28125 268.7L227.28125 260.10626L228.34375 260.10626L228.34375 263.16876Q229.01562 262.34064 230.04688 262.34064Q230.625 262.34064 231.125 262.575Q231.64062 262.79376 231.96875 263.21564Q232.3125 263.6375 232.5 264.23126Q232.6875 264.825 232.6875 265.4969Q232.6875 267.09064 231.89062 267.96564Q231.09375 268.84064 230.0 268.84064Q228.89062 268.84064 228.26562 267.91876L228.26562 268.7ZM228.25 265.54376Q228.25 266.65314 228.5625 267.15314Q229.0625 267.96564 229.90625 267.96564Q230.59375 267.96564 231.09375 267.3719Q231.60938 266.77814 231.60938 265.575Q231.60938 264.35626 231.125 263.77814Q230.64062 263.2 229.95312 263.2Q229.26562 263.2 228.75 263.8094Q228.25 264.40314 228.25 265.54376ZM238.54688 266.7L239.64062 266.825Q239.39062 267.77814 238.6875 268.3094Q237.98438 268.84064 236.90625 268.84064Q235.54688 268.84064 234.73438 267.9969Q233.9375 267.15314 233.9375 265.6375Q233.9375 264.075 234.75 263.21564Q235.5625 262.34064 236.84375 262.34064Q238.09375 262.34064 238.875 263.1844Q239.67188 264.02814 239.67188 265.575Q239.67188 265.66876 239.67188 265.85626L235.03125 265.85626Q235.09375 266.8875 235.60938 267.4344Q236.125 267.96564 236.90625 267.96564Q237.48438 267.96564 237.89062 267.66876Q238.3125 267.35626 238.54688 266.7ZM235.09375 264.9969L238.5625 264.9969Q238.5 264.2 238.17188 263.8094Q237.65625 263.2 236.85938 263.2Q236.125 263.2 235.625 263.6844Q235.14062 264.16876 235.09375 264.9969ZM241.28125 268.7L241.28125 262.48126L242.23438 262.48126L242.23438 263.41876Q242.59375 262.7625 242.89062 262.5594Q243.20312 262.34064 243.57812 262.34064Q244.10938 262.34064 244.65625 262.66876L244.29688 263.65314Q243.90625 263.41876 243.53125 263.41876Q243.17188 263.41876 242.89062 263.6375Q242.625 263.84064 242.51562 264.21564Q242.32812 264.77814 242.32812 265.4344L242.32812 268.7L241.28125 268.7ZM247.90625 265.59064Q247.90625 263.85626 248.85938 263.02814Q249.65625 262.34064 250.8125 262.34064Q252.09375 262.34064 252.90625 263.1844Q253.73438 264.0125 253.73438 265.4969Q253.73438 266.7 253.375 267.3875Q253.01562 268.075 252.3125 268.46564Q251.625 268.84064 250.8125 268.84064Q249.51562 268.84064 248.70312 268.0125Q247.90625 267.16876 247.90625 265.59064ZM248.98438 265.59064Q248.98438 266.77814 249.5 267.3719Q250.03125 267.96564 250.8125 267.96564Q251.60938 267.96564 252.125 267.3719Q252.64062 266.77814 252.64062 265.5594Q252.64062 264.40314 252.10938 263.8094Q251.59375 263.21564 250.8125 263.21564Q250.03125 263.21564 249.5 263.8094Q248.98438 264.3875 248.98438 265.59064ZM255.54688 268.7L255.54688 263.29376L254.60938 263.29376L254.60938 262.48126L255.54688 262.48126L255.54688 261.8094Q255.54688 261.1844 255.65625 260.8875Q255.8125 260.46564 256.1875 260.21564Q256.57812 259.96564 257.26562 259.96564Q257.71875 259.96564 258.25 260.075L258.09375 260.98126Q257.76562 260.9344 257.46875 260.9344Q256.98438 260.9344 256.78125 261.1375Q256.59375 261.34064 256.59375 261.90314L256.59375 262.48126L257.8125 262.48126L257.8125 263.29376L256.59375 263.29376L256.59375 268.7L255.54688 268.7ZM261.42188 268.7L261.42188 260.10626L264.67188 260.10626Q265.51562 260.10626 265.96875 260.1844Q266.60938 260.29376 267.03125 260.59064Q267.46875 260.8875 267.71875 261.41876Q267.98438 261.95 267.98438 262.59064Q267.98438 263.6844 267.28125 264.45Q266.59375 265.2 264.76562 265.2L262.5625 265.2L262.5625 268.7L261.42188 268.7ZM262.5625 264.2L264.78125 264.2Q265.89062 264.2 266.34375 263.79376Q266.8125 263.3719 266.8125 262.6219Q266.8125 262.09064 266.53125 261.71564Q266.26562 261.325 265.82812 261.2Q265.53125 261.1219 264.76562 261.1219L262.5625 261.1219L262.5625 264.2ZM269.46875 268.7L269.46875 260.10626L270.59375 260.10626L270.59375 263.6375L275.0625 263.6375L275.0625 260.10626L276.20312 260.10626L276.20312 268.7L275.0625 268.7L275.0625 264.65314L270.59375 264.65314L270.59375 268.7L269.46875 268.7ZM280.60938 268.7L280.60938 261.1219L277.78125 261.1219L277.78125 260.10626L284.59375 260.10626L284.59375 261.1219L281.75 261.1219L281.75 268.7L280.60938 268.7ZM292.54688 266.7L293.64062 266.825Q293.39062 267.77814 292.6875 268.3094Q291.98438 268.84064 290.90625 268.84064Q289.54688 268.84064 288.73438 267.9969Q287.9375 267.15314 287.9375 265.6375Q287.9375 264.075 288.75 263.21564Q289.5625 262.34064 290.84375 262.34064Q292.09375 262.34064 292.875 263.1844Q293.67188 264.02814 293.67188 265.575Q293.67188 265.66876 293.67188 265.85626L289.03125 265.85626Q289.09375 266.8875 289.60938 267.4344Q290.125 267.96564 290.90625 267.96564Q291.48438 267.96564 291.89062 267.66876Q292.3125 267.35626 292.54688 266.7ZM289.09375 264.9969L292.5625 264.9969Q292.5 264.2 292.17188 263.8094Q291.65625 263.2 290.85938 263.2Q290.125 263.2 289.625 263.6844Q289.14062 264.16876 289.09375 264.9969ZM295.29688 268.7L295.29688 262.48126L296.23438 262.48126L296.23438 263.35626Q296.92188 262.34064 298.21875 262.34064Q298.78125 262.34064 299.25 262.54376Q299.73438 262.7469 299.96875 263.075Q300.20312 263.40314 300.29688 263.84064Q300.34375 264.1375 300.34375 264.8719L300.34375 268.7L299.29688 268.7L299.29688 264.91876Q299.29688 264.2625 299.17188 263.95Q299.04688 263.6375 298.73438 263.45Q298.42188 263.2469 298.0 263.2469Q297.32812 263.2469 296.82812 263.6844Q296.34375 264.10626 296.34375 265.29376L296.34375 268.7L295.29688 268.7ZM304.59375 267.7625L304.75 268.6844Q304.29688 268.77814 303.95312 268.77814Q303.375 268.77814 303.0625 268.60626Q302.75 268.41876 302.60938 268.1219Q302.48438 267.825 302.48438 266.8719L302.48438 263.29376L301.71875 263.29376L301.71875 262.48126L302.48438 262.48126L302.48438 260.9344L303.53125 260.3094L303.53125 262.48126L304.59375 262.48126L304.59375 263.29376L303.53125 263.29376L303.53125 266.9344Q303.53125 267.3875 303.57812 267.5125Q303.64062 267.6375 303.76562 267.71564Q303.89062 267.79376 304.125 267.79376Q304.3125 267.79376 304.59375 267.7625ZM305.28125 268.7L305.28125 262.48126L306.23438 262.48126L306.23438 263.41876Q306.59375 262.7625 306.89062 262.5594Q307.20312 262.34064 307.57812 262.34064Q308.10938 262.34064 308.65625 262.66876L308.29688 263.65314Q307.90625 263.41876 307.53125 263.41876Q307.17188 263.41876 306.89062 263.6375Q306.625 263.84064 306.51562 264.21564Q306.32812 264.77814 306.32812 265.4344L306.32812 268.7L305.28125 268.7ZM309.29688 261.325L309.29688 260.10626L310.35938 260.10626L310.35938 261.325L309.29688 261.325ZM309.29688 268.7L309.29688 262.48126L310.35938 262.48126L310.35938 268.7L309.29688 268.7ZM316.54688 266.7L317.64062 266.825Q317.39062 267.77814 316.6875 268.3094Q315.98438 268.84064 314.90625 268.84064Q313.54688 268.84064 312.73438 267.9969Q311.9375 267.15314 311.9375 265.6375Q311.9375 264.075 312.75 263.21564Q313.5625 262.34064 314.84375 262.34064Q316.09375 262.34064 316.875 263.1844Q317.67188 264.02814 317.67188 265.575Q317.67188 265.66876 317.67188 265.85626L313.03125 265.85626Q313.09375 266.8875 313.60938 267.4344Q314.125 267.96564 314.90625 267.96564Q315.48438 267.96564 315.89062 267.66876Q316.3125 267.35626 316.54688 266.7ZM313.09375 264.9969L316.5625 264.9969Q316.5 264.2 316.17188 263.8094Q315.65625 263.2 314.85938 263.2Q314.125 263.2 313.625 263.6844Q313.14062 264.16876 313.09375 264.9969ZM318.875 266.84064L319.90625 266.6844Q320.0 267.3094 320.39062 267.6375Q320.79688 267.96564 321.53125 267.96564Q322.25 267.96564 322.59375 267.6844Q322.95312 267.3875 322.95312 266.98126Q322.95312 266.6219 322.64062 266.41876Q322.42188 266.27814 321.5625 266.0594Q320.40625 265.7625 319.95312 265.5594Q319.51562 265.34064 319.28125 264.96564Q319.04688 264.59064 319.04688 264.1219Q319.04688 263.71564 319.23438 263.35626Q319.42188 262.9969 319.75 262.7625Q320.0 262.59064 320.42188 262.46564Q320.84375 262.34064 321.34375 262.34064Q322.0625 262.34064 322.60938 262.5594Q323.17188 262.7625 323.4375 263.1219Q323.70312 263.48126 323.79688 264.075L322.76562 264.21564Q322.70312 263.7469 322.35938 263.48126Q322.03125 263.2 321.40625 263.2Q320.6875 263.2 320.375 263.45Q320.0625 263.6844 320.0625 264.0125Q320.0625 264.21564 320.1875 264.3719Q320.32812 264.54376 320.59375 264.65314Q320.75 264.71564 321.53125 264.91876Q322.65625 265.23126 323.09375 265.41876Q323.53125 265.60626 323.78125 265.96564Q324.03125 266.325 324.03125 266.8719Q324.03125 267.40314 323.71875 267.8719Q323.42188 268.325 322.84375 268.59064Q322.26562 268.84064 321.53125 268.84064Q320.3125 268.84064 319.67188 268.34064Q319.04688 267.825 318.875 266.84064Z" fill-rule="nonzero"/><path fill="#000000" d="M25.299997 203.61145L16.706247 203.61145L16.706247 200.36145Q16.706247 199.5177 16.784372 199.06458Q16.893747 198.42395 17.190622 198.00208Q17.487497 197.56458 18.018747 197.31458Q18.549997 197.04895 19.190622 197.04895Q20.284372 197.04895 21.049997 197.75208Q21.799997 198.43958 21.799997 200.2677L21.799997 202.47083L25.299997 202.47083L25.299997 203.61145ZM20.799997 202.47083L20.799997 200.25208Q20.799997 199.1427 20.393747 198.68958Q19.971872 198.22083 19.221872 198.22083Q18.690622 198.22083 18.315622 198.50208Q17.924997 198.7677 17.799997 199.2052Q17.721872 199.50208 17.721872 200.2677L17.721872 202.47083L20.799997 202.47083ZM25.299997 195.75208L19.081247 195.75208L19.081247 194.79895L20.018747 194.79895Q19.362497 194.43958 19.159372 194.1427Q18.940622 193.8302 18.940622 193.4552Q18.940622 192.92395 19.268747 192.37708L20.253122 192.73645Q20.018747 193.12708 20.018747 193.50208Q20.018747 193.86145 20.237497 194.1427Q20.440622 194.40833 20.815622 194.5177Q21.378122 194.7052 22.034372 194.7052L25.299997 194.7052L25.299997 195.75208ZM23.299997 187.48645L23.424997 186.3927Q24.378122 186.6427 24.909372 187.34583Q25.440622 188.04895 25.440622 189.12708Q25.440622 190.48645 24.596872 191.29895Q23.753122 192.09583 22.237497 192.09583Q20.674997 192.09583 19.815622 191.28333Q18.940622 190.47083 18.940622 189.18958Q18.940622 187.93958 19.784372 187.15833Q20.628122 186.36145 22.174997 186.36145Q22.268747 186.36145 22.456247 186.36145L22.456247 191.00208Q23.487497 190.93958 24.034372 190.42395Q24.565622 189.90833 24.565622 189.12708Q24.565622 188.54895 24.268747 188.1427Q23.956247 187.72083 23.299997 187.48645ZM21.596872 190.93958L21.596872 187.47083Q20.799997 187.53333 20.409372 187.86145Q19.799997 188.37708 19.799997 189.17395Q19.799997 189.90833 20.284372 190.40833Q20.768747 190.8927 21.596872 190.93958ZM25.299997 180.7052L24.518747 180.7052Q25.440622 181.29895 25.440622 182.43958Q25.440622 183.18958 25.034372 183.81458Q24.612497 184.43958 23.878122 184.78333Q23.143747 185.12708 22.190622 185.12708Q21.268747 185.12708 20.503122 184.81458Q19.737497 184.50208 19.346872 183.87708Q18.940622 183.25208 18.940622 182.48645Q18.940622 181.92395 19.174997 181.48645Q19.409372 181.04895 19.784372 180.7677L16.706247 180.7677L16.706247 179.72083L25.299997 179.72083L25.299997 180.7052ZM22.190622 184.03333Q23.393747 184.03333 23.987497 183.53333Q24.565622 183.03333 24.565622 182.34583Q24.565622 181.65833 24.003122 181.17395Q23.440622 180.68958 22.284372 180.68958Q21.003122 180.68958 20.409372 181.18958Q19.815622 181.67395 19.815622 182.3927Q19.815622 183.09583 20.393747 183.56458Q20.956247 184.03333 22.190622 184.03333ZM17.924997 177.73645L16.706247 177.73645L16.706247 176.67395L17.924997 176.67395L17.924997 177.73645ZM25.299997 177.73645L19.081247 177.73645L19.081247 176.67395L25.299997 176.67395L25.299997 177.73645ZM23.018747 170.67395L23.159372 169.6427Q24.221872 169.81458 24.831247 170.5177Q25.440622 171.22083 25.440622 172.23645Q25.440622 173.5177 24.612497 174.29895Q23.768747 175.06458 22.206247 175.06458Q21.206247 175.06458 20.456247 174.73645Q19.690622 174.3927 19.315622 173.72083Q18.940622 173.03333 18.940622 172.22083Q18.940622 171.22083 19.456247 170.5802Q19.956247 169.92395 20.909372 169.73645L21.065622 170.7677Q20.440622 170.90833 20.128122 171.28333Q19.799997 171.65833 19.799997 172.18958Q19.799997 172.98645 20.378122 173.48645Q20.940622 173.98645 22.174997 173.98645Q23.440622 173.98645 24.003122 173.50208Q24.565622 173.0177 24.565622 172.25208Q24.565622 171.62708 24.190622 171.22083Q23.815622 170.79895 23.018747 170.67395ZM24.362497 166.43958L25.284372 166.28333Q25.378122 166.73645 25.378122 167.0802Q25.378122 167.65833 25.206247 167.97083Q25.018747 168.28333 24.721872 168.42395Q24.424997 168.54895 23.471872 168.54895L19.893747 168.54895L19.893747 169.31458L19.081247 169.31458L19.081247 168.54895L17.534372 168.54895L16.909372 167.50208L19.081247 167.50208L19.081247 166.43958L19.893747 166.43958L19.893747 167.50208L23.534372 167.50208Q23.987497 167.50208 24.112497 167.4552Q24.237497 167.3927 24.315622 167.2677Q24.393747 167.1427 24.393747 166.90833Q24.393747 166.72083 24.362497 166.43958ZM17.924997 165.73645L16.706247 165.73645L16.706247 164.67395L17.924997 164.67395L17.924997 165.73645ZM25.299997 165.73645L19.081247 165.73645L19.081247 164.67395L25.299997 164.67395L25.299997 165.73645ZM22.190622 163.12708Q20.456247 163.12708 19.628122 162.17395Q18.940622 161.37708 18.940622 160.22083Q18.940622 158.93958 19.784372 158.12708Q20.612497 157.29895 22.096872 157.29895Q23.299997 157.29895 23.987497 157.65833Q24.674997 158.0177 25.065622 158.72083Q25.440622 159.40833 25.440622 160.22083Q25.440622 161.5177 24.612497 162.3302Q23.768747 163.12708 22.190622 163.12708ZM22.190622 162.04895Q23.378122 162.04895 23.971872 161.53333Q24.565622 161.00208 24.565622 160.22083Q24.565622 159.42395 23.971872 158.90833Q23.378122 158.3927 22.159372 158.3927Q21.003122 158.3927 20.409372 158.92395Q19.815622 159.43958 19.815622 160.22083Q19.815622 161.00208 20.409372 161.53333Q20.987497 162.04895 22.190622 162.04895ZM25.299997 155.73645L19.081247 155.73645L19.081247 154.79895L19.956247 154.79895Q18.940622 154.11145 18.940622 152.81458Q18.940622 152.25208 19.143747 151.78333Q19.346872 151.29895 19.674997 151.06458Q20.003122 150.8302 20.440622 150.73645Q20.737497 150.68958 21.471872 150.68958L25.299997 150.68958L25.299997 151.73645L21.518747 151.73645Q20.862497 151.73645 20.549997 151.86145Q20.237497 151.98645 20.049997 152.29895Q19.846872 152.61145 19.846872 153.03333Q19.846872 153.7052 20.284372 154.2052Q20.706247 154.68958 21.893747 154.68958L25.299997 154.68958L25.299997 155.73645ZM25.299997 146.54895L16.706247 143.25208L16.706247 142.03333L25.299997 138.5177L25.299997 139.79895L22.690622 140.81458L22.690622 144.3927L25.299997 145.34583L25.299997 146.54895ZM21.768747 144.06458L21.768747 141.15833L19.393747 142.04895Q18.315622 142.47083 17.612497 142.65833Q18.440622 142.8302 19.253122 143.12708L21.768747 144.06458ZM23.018747 134.67395L23.159372 133.6427Q24.221872 133.81458 24.831247 134.5177Q25.440622 135.22083 25.440622 136.23645Q25.440622 137.5177 24.612497 138.29895Q23.768747 139.06458 22.206247 139.06458Q21.206247 139.06458 20.456247 138.73645Q19.690622 138.3927 19.315622 137.72083Q18.940622 137.03333 18.940622 136.22083Q18.940622 135.22083 19.456247 134.5802Q19.956247 133.92395 20.909372 133.73645L21.065622 134.7677Q20.440622 134.90833 20.128122 135.28333Q19.799997 135.65833 19.799997 136.18958Q19.799997 136.98645 20.378122 137.48645Q20.940622 137.98645 22.174997 137.98645Q23.440622 137.98645 24.003122 137.50208Q24.565622 137.0177 24.565622 136.25208Q24.565622 135.62708 24.190622 135.22083Q23.815622 134.79895 23.018747 134.67395ZM23.018747 128.67395L23.159372 127.64271Q24.221872 127.81458 24.831247 128.5177Q25.440622 129.22083 25.440622 130.23645Q25.440622 131.5177 24.612497 132.29895Q23.768747 133.06458 22.206247 133.06458Q21.206247 133.06458 20.456247 132.73645Q19.690622 132.3927 19.315622 131.72083Q18.940622 131.03333 18.940622 130.22083Q18.940622 129.22083 19.456247 128.5802Q19.956247 127.92396 20.909372 127.73646L21.065622 128.7677Q20.440622 128.90833 20.128122 129.28333Q19.799997 129.65833 19.799997 130.18958Q19.799997 130.98645 20.378122 131.48645Q20.940622 131.98645 22.174997 131.98645Q23.440622 131.98645 24.003122 131.50208Q24.565622 131.0177 24.565622 130.25208Q24.565622 129.62708 24.190622 129.22083Q23.815622 128.79895 23.018747 128.67395ZM25.299997 122.658325L24.378122 122.658325Q25.440622 123.3927 25.440622 124.6427Q25.440622 125.189575 25.237497 125.67395Q25.018747 126.14271 24.706247 126.37708Q24.378122 126.61146 23.909372 126.70521Q23.612497 126.76771 22.924997 126.76771L19.081247 126.76771L19.081247 125.7052L22.534372 125.7052Q23.346872 125.7052 23.643747 125.6427Q24.049997 125.54895 24.299997 125.23645Q24.534372 124.908325 24.534372 124.42395Q24.534372 123.9552 24.299997 123.54895Q24.049997 123.127075 23.628122 122.9552Q23.206247 122.7677 22.409372 122.7677L19.081247 122.7677L19.081247 121.720825L25.299997 121.720825L25.299997 122.658325ZM25.299997 119.752075L19.081247 119.752075L19.081247 118.79895L20.018747 118.79895Q19.362497 118.439575 19.159372 118.1427Q18.940622 117.8302 18.940622 117.4552Q18.940622 116.92395 19.268747 116.377075L20.253122 116.73645Q20.018747 117.127075 20.018747 117.502075Q20.018747 117.86145 20.237497 118.1427Q20.440622 118.408325 20.815622 118.5177Q21.378122 118.7052 22.034372 118.7052L25.299997 118.7052L25.299997 119.752075ZM24.534372 111.67395Q25.034372 112.2677 25.237497 112.814575Q25.440622 113.345825 25.440622 113.970825Q25.440622 115.002075 24.940622 115.54895Q24.440622 116.095825 23.659372 116.095825Q23.206247 116.095825 22.831247 115.8927Q22.440622 115.689575 22.221872 115.345825Q21.987497 115.002075 21.878122 114.5802Q21.784372 114.283325 21.706247 113.6427Q21.565622 112.377075 21.346872 111.7677Q21.128122 111.7677 21.081247 111.7677Q20.424997 111.7677 20.159372 112.064575Q19.815622 112.470825 19.815622 113.2677Q19.815622 114.002075 20.081247 114.36145Q20.331247 114.720825 20.987497 114.8927L20.846872 115.92395Q20.190622 115.783325 19.784372 115.4552Q19.378122 115.127075 19.159372 114.5177Q18.940622 113.908325 18.940622 113.11145Q18.940622 112.314575 19.128122 111.814575Q19.315622 111.314575 19.596872 111.0802Q19.878122 110.845825 20.315622 110.752075Q20.581247 110.7052 21.284372 110.7052L22.690622 110.7052Q24.159372 110.7052 24.549997 110.6427Q24.940622 110.564575 25.299997 110.36145L25.299997 111.470825Q24.971872 111.627075 24.534372 111.67395ZM22.174997 111.7677Q22.409372 112.345825 22.581247 113.48645Q22.674997 114.1427 22.799997 114.408325Q22.909372 114.67395 23.128122 114.8302Q23.346872 114.970825 23.628122 114.970825Q24.049997 114.970825 24.331247 114.658325Q24.612497 114.3302 24.612497 113.720825Q24.612497 113.11145 24.346872 112.6427Q24.081247 112.158325 23.612497 111.939575Q23.253122 111.7677 22.565622 111.7677L22.174997 111.7677ZM23.018747 104.67395L23.159372 103.6427Q24.221872 103.814575 24.831247 104.5177Q25.440622 105.220825 25.440622 106.23645Q25.440622 107.5177 24.612497 108.29895Q23.768747 109.064575 22.206247 109.064575Q21.206247 109.064575 20.456247 108.73645Q19.690622 108.3927 19.315622 107.720825Q18.940622 107.033325 18.940622 106.220825Q18.940622 105.220825 19.456247 104.5802Q19.956247 103.92395 20.909372 103.73645L21.065622 104.7677Q20.440622 104.908325 20.128122 105.283325Q19.799997 105.658325 19.799997 106.189575Q19.799997 106.98645 20.378122 107.48645Q20.940622 107.98645 22.174997 107.98645Q23.440622 107.98645 24.003122 107.502075Q24.565622 107.0177 24.565622 106.252075Q24.565622 105.627075 24.190622 105.220825Q23.815622 104.79895 23.018747 104.67395ZM27.690622 102.783325L26.706247 102.908325Q26.799997 102.564575 26.799997 102.29895Q26.799997 101.9552 26.674997 101.752075Q26.565622 101.533325 26.362497 101.3927Q26.190622 101.29895 25.565622 101.064575Q25.487497 101.04895 25.315622 100.970825L19.081247 103.345825L19.081247 102.2052L22.674997 100.908325Q23.362497 100.658325 24.128122 100.4552Q23.393747 100.2677 22.706247 100.0177L19.081247 98.689575L19.081247 97.6427L25.409372 100.002075Q26.424997 100.3927 26.815622 100.595825Q27.346872 100.877075 27.581247 101.252075Q27.831247 101.61145 27.831247 102.11145Q27.831247 102.408325 27.690622 102.783325Z" fill-rule="nonzero"/><path fill="#000000" d="M46.8 219.46562Q46.8 217.93437 47.1125 217.0125Q47.425 216.075 48.034374 215.575Q48.659374 215.075 49.596874 215.075Q50.284374 215.075 50.8 215.35625Q51.33125 215.6375 51.675 216.16875Q52.01875 216.68437 52.20625 217.43437Q52.39375 218.18437 52.39375 219.46562Q52.39375 220.98125 52.08125 221.90312Q51.784374 222.825 51.159374 223.34062Q50.55 223.84062 49.596874 223.84062Q48.3625 223.84062 47.64375 222.95Q46.8 221.8875 46.8 219.46562ZM47.878124 219.46562Q47.878124 221.575 48.378124 222.27812Q48.878124 222.98125 49.596874 222.98125Q50.33125 222.98125 50.815624 222.27812Q51.315624 221.575 51.315624 219.46562Q51.315624 217.34062 50.815624 216.65312Q50.33125 215.95 49.58125 215.95Q48.8625 215.95 48.425 216.55937Q47.878124 217.34062 47.878124 219.46562ZM54.39375 223.7L54.39375 222.49687L55.596874 222.49687L55.596874 223.7L54.39375 223.7ZM56.8 219.46562Q56.8 217.93437 57.1125 217.0125Q57.425 216.075 58.034374 215.575Q58.659374 215.075 59.596874 215.075Q60.284374 215.075 60.8 215.35625Q61.33125 215.6375 61.675 216.16875Q62.01875 216.68437 62.20625 217.43437Q62.39375 218.18437 62.39375 219.46562Q62.39375 220.98125 62.08125 221.90312Q61.784374 222.825 61.159374 223.34062Q60.55 223.84062 59.596874 223.84062Q58.3625 223.84062 57.64375 222.95Q56.8 221.8875 56.8 219.46562ZM57.878124 219.46562Q57.878124 221.575 58.378124 222.27812Q58.878124 222.98125 59.596874 222.98125Q60.33125 222.98125 60.815624 222.27812Q61.315624 221.575 61.315624 219.46562Q61.315624 217.34062 60.815624 216.65312Q60.33125 215.95 59.58125 215.95Q58.8625 215.95 58.425 216.55937Q57.878124 217.34062 57.878124 219.46562ZM63.8 219.46562Q63.8 217.93437 64.1125 217.0125Q64.425 216.075 65.03438 215.575Q65.65938 215.075 66.59688 215.075Q67.28438 215.075 67.8 215.35625Q68.33125 215.6375 68.675 216.16875Q69.01875 216.68437 69.20625 217.43437Q69.39375 218.18437 69.39375 219.46562Q69.39375 220.98125 69.08125 221.90312Q68.78438 222.825 68.15938 223.34062Q67.55 223.84062 66.59688 223.84062Q65.3625 223.84062 64.64375 222.95Q63.8 221.8875 63.8 219.46562ZM64.87813 219.46562Q64.87813 221.575 65.37813 222.27812Q65.87813 222.98125 66.59688 222.98125Q67.33125 222.98125 67.81563 222.27812Q68.31563 221.575 68.31563 219.46562Q68.31563 217.34062 67.81563 216.65312Q67.33125 215.95 66.58125 215.95Q65.8625 215.95 65.425 216.55937Q64.87813 217.34062 64.87813 219.46562Z" fill-rule="nonzero"/><path fill="#000000" d="M46.8 182.1323Q46.8 180.60104 47.1125 179.67917Q47.425 178.74167 48.034374 178.24167Q48.659374 177.74167 49.596874 177.74167Q50.284374 177.74167 50.8 178.02292Q51.33125 178.30417 51.675 178.83542Q52.01875 179.35104 52.20625 180.10104Q52.39375 180.85104 52.39375 182.1323Q52.39375 183.64792 52.08125 184.5698Q51.784374 185.49167 51.159374 186.0073Q50.55 186.5073 49.596874 186.5073Q48.3625 186.5073 47.64375 185.61667Q46.8 184.55417 46.8 182.1323ZM47.878124 182.1323Q47.878124 184.24167 48.378124 184.9448Q48.878124 185.64792 49.596874 185.64792Q50.33125 185.64792 50.815624 184.9448Q51.315624 184.24167 51.315624 182.1323Q51.315624 180.0073 50.815624 179.3198Q50.33125 178.61667 49.58125 178.61667Q48.8625 178.61667 48.425 179.22604Q47.878124 180.0073 47.878124 182.1323ZM54.39375 186.36667L54.39375 185.16354L55.596874 185.16354L55.596874 186.36667L54.39375 186.36667ZM62.346874 185.35104L62.346874 186.36667L56.659374 186.36667Q56.659374 185.99167 56.784374 185.6323Q57.003124 185.05417 57.471874 184.49167Q57.95625 183.92917 58.8625 183.1948Q60.26875 182.03854 60.753124 181.36667Q61.253124 180.6948 61.253124 180.10104Q61.253124 179.47604 60.8 179.05417Q60.346874 178.61667 59.628124 178.61667Q58.8625 178.61667 58.409374 179.0698Q57.95625 179.52292 57.940624 180.33542L56.8625 180.22604Q56.971874 179.0073 57.690624 178.3823Q58.425 177.74167 59.659374 177.74167Q60.89375 177.74167 61.6125 178.42917Q62.33125 179.11667 62.33125 180.1323Q62.33125 180.64792 62.1125 181.14792Q61.909374 181.6323 61.409374 182.1948Q60.925 182.74167 59.8 183.6948Q58.846874 184.49167 58.565624 184.78854Q58.3 185.0698 58.128124 185.35104L62.346874 185.35104ZM63.8 184.11667L64.90938 184.02292Q65.03438 184.83542 65.47188 185.24167Q65.925 185.64792 66.56563 185.64792Q67.31563 185.64792 67.84688 185.0698Q68.37813 184.49167 68.37813 183.55417Q68.37813 182.64792 67.8625 182.1323Q67.3625 181.60104 66.53438 181.60104Q66.03438 181.60104 65.6125 181.83542Q65.20625 182.0698 64.97188 182.42917L63.9875 182.30417L64.81563 177.89792L69.09688 177.89792L69.09688 178.89792L65.65938 178.89792L65.20625 181.21042Q65.97188 180.66354 66.81563 180.66354Q67.94063 180.66354 68.70625 181.4448Q69.4875 182.22604 69.4875 183.46042Q69.4875 184.61667 68.81563 185.47604Q67.9875 186.5073 66.56563 186.5073Q65.39375 186.5073 64.64375 185.85104Q63.909374 185.1948 63.8 184.11667Z" fill-rule="nonzero"/><path fill="#000000" d="M46.8 144.79897Q46.8 143.26772 47.1125 142.34584Q47.425 141.40834 48.034374 140.90834Q48.659374 140.40834 49.596874 140.40834Q50.284374 140.40834 50.8 140.68959Q51.33125 140.97084 51.675 141.50209Q52.01875 142.01772 52.20625 142.76772Q52.39375 143.51772 52.39375 144.79897Q52.39375 146.31459 52.08125 147.23647Q51.784374 148.15834 51.159374 148.67397Q50.55 149.17397 49.596874 149.17397Q48.3625 149.17397 47.64375 148.28334Q46.8 147.22084 46.8 144.79897ZM47.878124 144.79897Q47.878124 146.90834 48.378124 147.61147Q48.878124 148.31459 49.596874 148.31459Q50.33125 148.31459 50.815624 147.61147Q51.315624 146.90834 51.315624 144.79897Q51.315624 142.67397 50.815624 141.98647Q50.33125 141.28334 49.58125 141.28334Q48.8625 141.28334 48.425 141.89272Q47.878124 142.67397 47.878124 144.79897ZM54.39375 149.03334L54.39375 147.83022L55.596874 147.83022L55.596874 149.03334L54.39375 149.03334ZM56.8 146.78334L57.909374 146.68959Q58.034374 147.50209 58.471874 147.90834Q58.925 148.31459 59.565624 148.31459Q60.315624 148.31459 60.846874 147.73647Q61.378124 147.15834 61.378124 146.22084Q61.378124 145.31459 60.8625 144.79897Q60.3625 144.26772 59.534374 144.26772Q59.034374 144.26772 58.6125 144.50209Q58.20625 144.73647 57.971874 145.09584L56.9875 144.97084L57.815624 140.56459L62.096874 140.56459L62.096874 141.56459L58.659374 141.56459L58.20625 143.87709Q58.971874 143.33022 59.815624 143.33022Q60.940624 143.33022 61.70625 144.11147Q62.4875 144.89272 62.4875 146.12709Q62.4875 147.28334 61.815624 148.14272Q60.9875 149.17397 59.565624 149.17397Q58.39375 149.17397 57.64375 148.51772Q56.909374 147.86147 56.8 146.78334ZM63.8 144.79897Q63.8 143.26772 64.1125 142.34584Q64.425 141.40834 65.03438 140.90834Q65.65938 140.40834 66.59688 140.40834Q67.28438 140.40834 67.8 140.68959Q68.33125 140.97084 68.675 141.50209Q69.01875 142.01772 69.20625 142.76772Q69.39375 143.51772 69.39375 144.79897Q69.39375 146.31459 69.08125 147.23647Q68.78438 148.15834 68.15938 148.67397Q67.55 149.17397 66.59688 149.17397Q65.3625 149.17397 64.64375 148.28334Q63.8 147.22084 63.8 144.79897ZM64.87813 144.79897Q64.87813 146.90834 65.37813 147.61147Q65.87813 148.31459 66.59688 148.31459Q67.33125 148.31459 67.81563 147.61147Q68.31563 146.90834 68.31563 144.79897Q68.31563 142.67397 67.81563 141.98647Q67.33125 141.28334 66.58125 141.28334Q65.8625 141.28334 65.425 141.89272Q64.87813 142.67397 64.87813 144.79897Z" fill-rule="nonzero"/><path fill="#000000" d="M46.8 107.46562Q46.8 105.93437 47.1125 105.0125Q47.425 104.075 48.034374 103.575Q48.659374 103.075 49.596874 103.075Q50.284374 103.075 50.8 103.35625Q51.33125 103.6375 51.675 104.16875Q52.01875 104.68437 52.20625 105.43437Q52.39375 106.18437 52.39375 107.46562Q52.39375 108.98125 52.08125 109.90312Q51.784374 110.825 51.159374 111.34062Q50.55 111.84062 49.596874 111.84062Q48.3625 111.84062 47.64375 110.95Q46.8 109.8875 46.8 107.46562ZM47.878124 107.46562Q47.878124 109.575 48.378124 110.27812Q48.878124 110.98125 49.596874 110.98125Q50.33125 110.98125 50.815624 110.27812Q51.315624 109.575 51.315624 107.46562Q51.315624 105.34062 50.815624 104.65312Q50.33125 103.95 49.58125 103.95Q48.8625 103.95 48.425 104.55937Q47.878124 105.34062 47.878124 107.46562ZM54.39375 111.7L54.39375 110.49687L55.596874 110.49687L55.596874 111.7L54.39375 111.7ZM56.8625 104.23125L56.8625 103.21562L62.425 103.21562L62.425 104.04375Q61.6125 104.91875 60.8 106.37187Q60.003124 107.80937 59.565624 109.34062Q59.2375 110.41875 59.159374 111.7L58.065624 111.7Q58.08125 110.68437 58.45625 109.24687Q58.846874 107.80937 59.55 106.48125Q60.26875 105.15312 61.08125 104.23125L56.8625 104.23125ZM63.8 109.45L64.90938 109.35625Q65.03438 110.16875 65.47188 110.575Q65.925 110.98125 66.56563 110.98125Q67.31563 110.98125 67.84688 110.40312Q68.37813 109.825 68.37813 108.8875Q68.37813 107.98125 67.8625 107.46562Q67.3625 106.93437 66.53438 106.93437Q66.03438 106.93437 65.6125 107.16875Q65.20625 107.40312 64.97188 107.7625L63.9875 107.6375L64.81563 103.23125L69.09688 103.23125L69.09688 104.23125L65.65938 104.23125L65.20625 106.54375Q65.97188 105.99687 66.81563 105.99687Q67.94063 105.99687 68.70625 106.77812Q69.4875 107.55937 69.4875 108.79375Q69.4875 109.95 68.81563 110.80937Q67.9875 111.84062 66.56563 111.84062Q65.39375 111.84062 64.64375 111.18437Q63.909374 110.52812 63.8 109.45Z" fill-rule="nonzero"/><path fill="#000000" d="M50.76875 74.36667L49.721874 74.36667L49.721874 67.64792Q49.33125 68.00729 48.70625 68.38229Q48.096874 68.74167 47.6125 68.91354L47.6125 67.89792Q48.4875 67.47604 49.14375 66.89792Q49.815624 66.30417 50.096874 65.74167L50.76875 65.74167L50.76875 74.36667ZM54.39375 74.36667L54.39375 73.16354L55.596874 73.16354L55.596874 74.36667L54.39375 74.36667ZM56.8 70.13229Q56.8 68.60104 57.1125 67.67917Q57.425 66.74167 58.034374 66.24167Q58.659374 65.74167 59.596874 65.74167Q60.284374 65.74167 60.8 66.02292Q61.33125 66.30417 61.675 66.83542Q62.01875 67.35104 62.20625 68.10104Q62.39375 68.85104 62.39375 70.13229Q62.39375 71.64792 62.08125 72.56979Q61.784374 73.49167 61.159374 74.00729Q60.55 74.50729 59.596874 74.50729Q58.3625 74.50729 57.64375 73.61667Q56.8 72.55417 56.8 70.13229ZM57.878124 70.13229Q57.878124 72.24167 58.378124 72.94479Q58.878124 73.64792 59.596874 73.64792Q60.33125 73.64792 60.815624 72.94479Q61.315624 72.24167 61.315624 70.13229Q61.315624 68.00729 60.815624 67.31979Q60.33125 66.61667 59.58125 66.61667Q58.8625 66.61667 58.425 67.22604Q57.878124 68.00729 57.878124 70.13229ZM63.8 70.13229Q63.8 68.60104 64.1125 67.67917Q64.425 66.74167 65.03438 66.24167Q65.65938 65.74167 66.59688 65.74167Q67.28438 65.74167 67.8 66.02292Q68.33125 66.30417 68.675 66.83542Q69.01875 67.35104 69.20625 68.10104Q69.39375 68.85104 69.39375 70.13229Q69.39375 71.64792 69.08125 72.56979Q68.78438 73.49167 68.15938 74.00729Q67.55 74.50729 66.59688 74.50729Q65.3625 74.50729 64.64375 73.61667Q63.8 72.55417 63.8 70.13229ZM64.87813 70.13229Q64.87813 72.24167 65.37813 72.94479Q65.87813 73.64792 66.59688 73.64792Q67.33125 73.64792 67.81563 72.94479Q68.31563 72.24167 68.31563 70.13229Q68.31563 68.00729 67.81563 67.31979Q67.33125 66.61667 66.58125 66.61667Q65.8625 66.61667 65.425 67.22604Q64.87813 68.00729 64.87813 70.13229Z" fill-rule="nonzero"/><path fill="#000000" d="M148.60666 236.7L147.55978 236.7L147.55978 229.98125Q147.16916 230.34062 146.54416 230.71562Q145.93478 231.075 145.45041 231.24687L145.45041 230.23125Q146.32541 229.80937 146.98166 229.23125Q147.65353 228.6375 147.93478 228.075L148.60666 228.075L148.60666 236.7ZM151.63791 232.46562Q151.63791 230.93437 151.95041 230.0125Q152.26291 229.075 152.87228 228.575Q153.49728 228.075 154.43478 228.075Q155.12228 228.075 155.63791 228.35625Q156.16916 228.6375 156.51291 229.16875Q156.85666 229.68437 157.04416 230.43437Q157.23166 231.18437 157.23166 232.46562Q157.23166 233.98125 156.91916 234.90312Q156.62228 235.825 155.99728 236.34062Q155.38791 236.84062 154.43478 236.84062Q153.20041 236.84062 152.48166 235.95Q151.63791 234.8875 151.63791 232.46562ZM152.71603 232.46562Q152.71603 234.575 153.21603 235.27812Q153.71603 235.98125 154.43478 235.98125Q155.16916 235.98125 155.65353 235.27812Q156.15353 234.575 156.15353 232.46562Q156.15353 230.34062 155.65353 229.65312Q155.16916 228.95 154.41916 228.95Q153.70041 228.95 153.26291 229.55937Q152.71603 230.34062 152.71603 232.46562ZM158.63791 232.46562Q158.63791 230.93437 158.95041 230.0125Q159.26291 229.075 159.87228 228.575Q160.49728 228.075 161.43478 228.075Q162.12228 228.075 162.63791 228.35625Q163.16916 228.6375 163.51291 229.16875Q163.85666 229.68437 164.04416 230.43437Q164.23166 231.18437 164.23166 232.46562Q164.23166 233.98125 163.91916 234.90312Q163.62228 235.825 162.99728 236.34062Q162.38791 236.84062 161.43478 236.84062Q160.20041 236.84062 159.48166 235.95Q158.63791 234.8875 158.63791 232.46562ZM159.71603 232.46562Q159.71603 234.575 160.21603 235.27812Q160.71603 235.98125 161.43478 235.98125Q162.16916 235.98125 162.65353 235.27812Q163.15353 234.575 163.15353 232.46562Q163.15353 230.34062 162.65353 229.65312Q162.16916 228.95 161.41916 228.95Q160.70041 228.95 160.26291 229.55937Q159.71603 230.34062 159.71603 232.46562ZM165.63791 232.46562Q165.63791 230.93437 165.95041 230.0125Q166.26291 229.075 166.87228 228.575Q167.49728 228.075 168.43478 228.075Q169.12228 228.075 169.63791 228.35625Q170.16916 228.6375 170.51291 229.16875Q170.85666 229.68437 171.04416 230.43437Q171.23166 231.18437 171.23166 232.46562Q171.23166 233.98125 170.91916 234.90312Q170.62228 235.825 169.99728 236.34062Q169.38791 236.84062 168.43478 236.84062Q167.20041 236.84062 166.48166 235.95Q165.63791 234.8875 165.63791 232.46562ZM166.71603 232.46562Q166.71603 234.575 167.21603 235.27812Q167.71603 235.98125 168.43478 235.98125Q169.16916 235.98125 169.65353 235.27812Q170.15353 234.575 170.15353 232.46562Q170.15353 230.34062 169.65353 229.65312Q169.16916 228.95 168.41916 228.95Q167.70041 228.95 167.26291 229.55937Q166.71603 230.34062 166.71603 232.46562Z" fill-rule="nonzero"/><path fill="#000000" d="M244.03558 235.68437L244.03558 236.7L238.34808 236.7Q238.34808 236.325 238.47308 235.96562Q238.69183 235.3875 239.16058 234.825Q239.64496 234.2625 240.55121 233.52812Q241.95746 232.37187 242.44183 231.7Q242.94183 231.02812 242.94183 230.43437Q242.94183 229.80937 242.48871 229.3875Q242.03558 228.95 241.31683 228.95Q240.55121 228.95 240.09808 229.40312Q239.64496 229.85625 239.62933 230.66875L238.55121 230.55937Q238.66058 229.34062 239.37933 228.71562Q240.11371 228.075 241.34808 228.075Q242.58246 228.075 243.30121 228.7625Q244.01996 229.45 244.01996 230.46562Q244.01996 230.98125 243.80121 231.48125Q243.59808 231.96562 243.09808 232.52812Q242.61371 233.075 241.48871 234.02812Q240.53558 234.825 240.25433 235.12187Q239.98871 235.40312 239.81683 235.68437L244.03558 235.68437ZM245.48871 232.46562Q245.48871 230.93437 245.80121 230.0125Q246.11371 229.075 246.72308 228.575Q247.34808 228.075 248.28558 228.075Q248.97308 228.075 249.48871 228.35625Q250.01996 228.6375 250.36371 229.16875Q250.70746 229.68437 250.89496 230.43437Q251.08246 231.18437 251.08246 232.46562Q251.08246 233.98125 250.76996 234.90312Q250.47308 235.825 249.84808 236.34062Q249.23871 236.84062 248.28558 236.84062Q247.05121 236.84062 246.33246 235.95Q245.48871 234.8875 245.48871 232.46562ZM246.56683 232.46562Q246.56683 234.575 247.06683 235.27812Q247.56683 235.98125 248.28558 235.98125Q249.01996 235.98125 249.50433 235.27812Q250.00433 234.575 250.00433 232.46562Q250.00433 230.34062 249.50433 229.65312Q249.01996 228.95 248.26996 228.95Q247.55121 228.95 247.11371 229.55937Q246.56683 230.34062 246.56683 232.46562ZM252.48871 232.46562Q252.48871 230.93437 252.80121 230.0125Q253.11371 229.075 253.72308 228.575Q254.34808 228.075 255.28558 228.075Q255.97308 228.075 256.4887 228.35625Q257.01996 228.6375 257.3637 229.16875Q257.70746 229.68437 257.89496 230.43437Q258.08246 231.18437 258.08246 232.46562Q258.08246 233.98125 257.76996 234.90312Q257.47308 235.825 256.84808 236.34062Q256.2387 236.84062 255.28558 236.84062Q254.05121 236.84062 253.33246 235.95Q252.48871 234.8875 252.48871 232.46562ZM253.56683 232.46562Q253.56683 234.575 254.06683 235.27812Q254.56683 235.98125 255.28558 235.98125Q256.01996 235.98125 256.50433 235.27812Q257.00433 234.575 257.00433 232.46562Q257.00433 230.34062 256.50433 229.65312Q256.01996 228.95 255.26996 228.95Q254.55121 228.95 254.11371 229.55937Q253.56683 230.34062 253.56683 232.46562ZM259.4887 232.46562Q259.4887 230.93437 259.8012 230.0125Q260.1137 229.075 260.72308 228.575Q261.34808 228.075 262.28558 228.075Q262.97308 228.075 263.4887 228.35625Q264.01996 228.6375 264.3637 229.16875Q264.70746 229.68437 264.89496 230.43437Q265.08246 231.18437 265.08246 232.46562Q265.08246 233.98125 264.76996 234.90312Q264.47308 235.825 263.84808 236.34062Q263.2387 236.84062 262.28558 236.84062Q261.0512 236.84062 260.33246 235.95Q259.4887 234.8875 259.4887 232.46562ZM260.56683 232.46562Q260.56683 234.575 261.06683 235.27812Q261.56683 235.98125 262.28558 235.98125Q263.01996 235.98125 263.50433 235.27812Q264.00433 234.575 264.00433 232.46562Q264.00433 230.34062 263.50433 229.65312Q263.01996 228.95 262.26996 228.95Q261.5512 228.95 261.1137 229.55937Q260.56683 230.34062 260.56683 232.46562Z" fill-rule="nonzero"/><path fill="#000000" d="M332.3395 234.43437L333.402 234.29375Q333.57388 235.18437 334.01138 235.59062Q334.44888 235.98125 335.07388 235.98125Q335.82388 235.98125 336.3395 235.46562Q336.85513 234.95 336.85513 234.18437Q336.85513 233.46562 336.37076 232.99687Q335.902 232.5125 335.16763 232.5125Q334.87076 232.5125 334.41763 232.6375L334.54263 231.7Q334.652 231.71562 334.7145 231.71562Q335.38638 231.71562 335.91763 231.37187Q336.4645 231.0125 336.4645 230.27812Q336.4645 229.7 336.07388 229.325Q335.68326 228.93437 335.05826 228.93437Q334.44888 228.93437 334.027 229.325Q333.62076 229.71562 333.51138 230.48125L332.44888 230.29375Q332.63638 229.24687 333.32388 228.66875Q334.01138 228.075 335.027 228.075Q335.73013 228.075 336.32388 228.3875Q336.91763 228.68437 337.23013 229.2Q337.54263 229.71562 337.54263 230.30937Q337.54263 230.85625 337.24576 231.325Q336.94888 231.77812 336.37076 232.04375Q337.12076 232.21562 337.54263 232.77812Q337.9645 233.325 337.9645 234.16875Q337.9645 235.29375 337.13638 236.075Q336.32388 236.85625 335.07388 236.85625Q333.94888 236.85625 333.19888 236.18437Q332.44888 235.49687 332.3395 234.43437ZM339.3395 232.46562Q339.3395 230.93437 339.652 230.0125Q339.9645 229.075 340.57388 228.575Q341.19888 228.075 342.13638 228.075Q342.82388 228.075 343.3395 228.35625Q343.87076 228.6375 344.2145 229.16875Q344.55826 229.68437 344.74576 230.43437Q344.93326 231.18437 344.93326 232.46562Q344.93326 233.98125 344.62076 234.90312Q344.32388 235.825 343.69888 236.34062Q343.0895 236.84062 342.13638 236.84062Q340.902 236.84062 340.18326 235.95Q339.3395 234.8875 339.3395 232.46562ZM340.41763 232.46562Q340.41763 234.575 340.91763 235.27812Q341.41763 235.98125 342.13638 235.98125Q342.87076 235.98125 343.35513 235.27812Q343.85513 234.575 343.85513 232.46562Q343.85513 230.34062 343.35513 229.65312Q342.87076 228.95 342.12076 228.95Q341.402 228.95 340.9645 229.55937Q340.41763 230.34062 340.41763 232.46562ZM346.3395 232.46562Q346.3395 230.93437 346.652 230.0125Q346.9645 229.075 347.57388 228.575Q348.19888 228.075 349.13638 228.075Q349.82388 228.075 350.3395 228.35625Q350.87076 228.6375 351.2145 229.16875Q351.55826 229.68437 351.74576 230.43437Q351.93326 231.18437 351.93326 232.46562Q351.93326 233.98125 351.62076 234.90312Q351.32388 235.825 350.69888 236.34062Q350.0895 236.84062 349.13638 236.84062Q347.902 236.84062 347.18326 235.95Q346.3395 234.8875 346.3395 232.46562ZM347.41763 232.46562Q347.41763 234.575 347.91763 235.27812Q348.41763 235.98125 349.13638 235.98125Q349.87076 235.98125 350.35513 235.27812Q350.85513 234.575 350.85513 232.46562Q350.85513 230.34062 350.35513 229.65312Q349.87076 228.95 349.12076 228.95Q348.402 228.95 347.9645 229.55937Q347.41763 230.34062 347.41763 232.46562ZM353.3395 232.46562Q353.3395 230.93437 353.652 230.0125Q353.9645 229.075 354.57388 228.575Q355.19888 228.075 356.13638 228.075Q356.82388 228.075 357.3395 228.35625Q357.87076 228.6375 358.2145 229.16875Q358.55826 229.68437 358.74576 230.43437Q358.93326 231.18437 358.93326 232.46562Q358.93326 233.98125 358.62076 234.90312Q358.32388 235.825 357.69888 236.34062Q357.0895 236.84062 356.13638 236.84062Q354.902 236.84062 354.18326 235.95Q353.3395 234.8875 353.3395 232.46562ZM354.41763 232.46562Q354.41763 234.575 354.91763 235.27812Q355.41763 235.98125 356.13638 235.98125Q356.87076 235.98125 357.35513 235.27812Q357.85513 234.575 357.85513 232.46562Q357.85513 230.34062 357.35513 229.65312Q356.87076 228.95 356.12076 228.95Q355.402 228.95 354.9645 229.55937Q354.41763 230.34062 354.41763 232.46562Z" fill-rule="nonzero"/><path fill="#000000" d="M429.5653 236.7L429.5653 234.6375L425.84656 234.6375L425.84656 233.66875L429.76843 228.10625L430.6278 228.10625L430.6278 233.66875L431.78406 233.66875L431.78406 234.6375L430.6278 234.6375L430.6278 236.7L429.5653 236.7ZM429.5653 233.66875L429.5653 229.80937L426.8778 233.66875L429.5653 233.66875ZM433.1903 232.46562Q433.1903 230.93437 433.5028 230.0125Q433.8153 229.075 434.42468 228.575Q435.04968 228.075 435.98718 228.075Q436.67468 228.075 437.1903 228.35625Q437.72156 228.6375 438.0653 229.16875Q438.40906 229.68437 438.59656 230.43437Q438.78406 231.18437 438.78406 232.46562Q438.78406 233.98125 438.47156 234.90312Q438.17468 235.825 437.54968 236.34062Q436.9403 236.84062 435.98718 236.84062Q434.7528 236.84062 434.03406 235.95Q433.1903 234.8875 433.1903 232.46562ZM434.26843 232.46562Q434.26843 234.575 434.76843 235.27812Q435.26843 235.98125 435.98718 235.98125Q436.72156 235.98125 437.20593 235.27812Q437.70593 234.575 437.70593 232.46562Q437.70593 230.34062 437.20593 229.65312Q436.72156 228.95 435.97156 228.95Q435.2528 228.95 434.8153 229.55937Q434.26843 230.34062 434.26843 232.46562ZM440.1903 232.46562Q440.1903 230.93437 440.5028 230.0125Q440.8153 229.075 441.42468 228.575Q442.04968 228.075 442.98718 228.075Q443.67468 228.075 444.1903 228.35625Q444.72156 228.6375 445.0653 229.16875Q445.40906 229.68437 445.59656 230.43437Q445.78406 231.18437 445.78406 232.46562Q445.78406 233.98125 445.47156 234.90312Q445.17468 235.825 444.54968 236.34062Q443.9403 236.84062 442.98718 236.84062Q441.7528 236.84062 441.03406 235.95Q440.1903 234.8875 440.1903 232.46562ZM441.26843 232.46562Q441.26843 234.575 441.76843 235.27812Q442.26843 235.98125 442.98718 235.98125Q443.72156 235.98125 444.20593 235.27812Q444.70593 234.575 444.70593 232.46562Q444.70593 230.34062 444.20593 229.65312Q443.72156 228.95 442.97156 228.95Q442.2528 228.95 441.8153 229.55937Q441.26843 230.34062 441.26843 232.46562ZM447.1903 232.46562Q447.1903 230.93437 447.5028 230.0125Q447.8153 229.075 448.42468 228.575Q449.04968 228.075 449.98718 228.075Q450.67468 228.075 451.1903 228.35625Q451.72156 228.6375 452.0653 229.16875Q452.40906 229.68437 452.59656 230.43437Q452.78406 231.18437 452.78406 232.46562Q452.78406 233.98125 452.47156 234.90312Q452.17468 235.825 451.54968 236.34062Q450.9403 236.84062 449.98718 236.84062Q448.7528 236.84062 448.03406 235.95Q447.1903 234.8875 447.1903 232.46562ZM448.26843 232.46562Q448.26843 234.575 448.76843 235.27812Q449.26843 235.98125 449.98718 235.98125Q450.72156 235.98125 451.20593 235.27812Q451.70593 234.575 451.70593 232.46562Q451.70593 230.34062 451.20593 229.65312Q450.72156 228.95 449.97156 228.95Q449.2528 228.95 448.8153 229.55937Q448.26843 230.34062 448.26843 232.46562Z" fill-rule="nonzero"/><path stroke="#4285f4" stroke-width="4.0" stroke-linecap="butt" d="M116.5 46.833332L128.5 46.833332" fill-rule="nonzero"/><path fill="#1a1a1a" d="M137.375 50.833332L137.375 42.239582L138.51562 42.239582L138.51562 49.817707L142.75 49.817707L142.75 50.833332L137.375 50.833332ZM143.90625 47.723957Q143.90625 45.989582 144.85938 45.161457Q145.65625 44.473957 146.8125 44.473957Q148.09375 44.473957 148.90625 45.317707Q149.73438 46.145832 149.73438 47.630207Q149.73438 48.833332 149.375 49.520832Q149.01562 50.208332 148.3125 50.598957Q147.625 50.973957 146.8125 50.973957Q145.51562 50.973957 144.70312 50.145832Q143.90625 49.302082 143.90625 47.723957ZM144.98438 47.723957Q144.98438 48.911457 145.5 49.505207Q146.03125 50.098957 146.8125 50.098957Q147.60938 50.098957 148.125 49.505207Q148.64062 48.911457 148.64062 47.692707Q148.64062 46.536457 148.10938 45.942707Q147.59375 45.348957 146.8125 45.348957Q146.03125 45.348957 145.5 45.942707Q144.98438 46.520832 144.98438 47.723957ZM155.35938 48.552082L156.39062 48.692707Q156.21875 49.755207 155.51562 50.364582Q154.8125 50.973957 153.79688 50.973957Q152.51562 50.973957 151.73438 50.145832Q150.96875 49.302082 150.96875 47.739582Q150.96875 46.739582 151.29688 45.989582Q151.64062 45.223957 152.3125 44.848957Q153.0 44.473957 153.8125 44.473957Q154.8125 44.473957 155.45312 44.989582Q156.10938 45.489582 156.29688 46.442707L155.26562 46.598957Q155.125 45.973957 154.75 45.661457Q154.375 45.333332 153.84375 45.333332Q153.04688 45.333332 152.54688 45.911457Q152.04688 46.473957 152.04688 47.708332Q152.04688 48.973957 152.53125 49.536457Q153.01562 50.098957 153.78125 50.098957Q154.40625 50.098957 154.8125 49.723957Q155.23438 49.348957 155.35938 48.552082ZM161.35938 50.067707Q160.76562 50.567707 160.21875 50.770832Q159.6875 50.973957 159.0625 50.973957Q158.03125 50.973957 157.48438 50.473957Q156.9375 49.973957 156.9375 49.192707Q156.9375 48.739582 157.14062 48.364582Q157.34375 47.973957 157.6875 47.755207Q158.03125 47.520832 158.45312 47.411457Q158.75 47.317707 159.39062 47.239582Q160.65625 47.098957 161.26562 46.880207Q161.26562 46.661457 161.26562 46.614582Q161.26562 45.958332 160.96875 45.692707Q160.5625 45.348957 159.76562 45.348957Q159.03125 45.348957 158.67188 45.614582Q158.3125 45.864582 158.14062 46.520832L157.10938 46.380207Q157.25 45.723957 157.57812 45.317707Q157.90625 44.911457 158.51562 44.692707Q159.125 44.473957 159.92188 44.473957Q160.71875 44.473957 161.21875 44.661457Q161.71875 44.848957 161.95312 45.130207Q162.1875 45.411457 162.28125 45.848957Q162.32812 46.114582 162.32812 46.817707L162.32812 48.223957Q162.32812 49.692707 162.39062 50.083332Q162.46875 50.473957 162.67188 50.833332L161.5625 50.833332Q161.40625 50.505207 161.35938 50.067707ZM161.26562 47.708332Q160.6875 47.942707 159.54688 48.114582Q158.89062 48.208332 158.625 48.333332Q158.35938 48.442707 158.20312 48.661457Q158.0625 48.880207 158.0625 49.161457Q158.0625 49.583332 158.375 49.864582Q158.70312 50.145832 159.3125 50.145832Q159.92188 50.145832 160.39062 49.880207Q160.875 49.614582 161.09375 49.145832Q161.26562 48.786457 161.26562 48.098957L161.26562 47.708332ZM164.26562 50.833332L164.26562 42.239582L165.32812 42.239582L165.32812 50.833332L164.26562 50.833332Z" fill-rule="nonzero"/><path stroke="#ea4335" stroke-width="4.0" stroke-linecap="butt" d="M182.5 46.833332L194.5 46.833332" fill-rule="nonzero"/><path fill="#1a1a1a" d="M207.45312 47.458332L207.45312 46.458332L211.07812 46.442707L211.07812 49.630207Q210.25 50.302082 209.35938 50.645832Q208.46875 50.973957 207.53125 50.973957Q206.26562 50.973957 205.21875 50.442707Q204.1875 49.895832 203.65625 48.880207Q203.14062 47.848957 203.14062 46.583332Q203.14062 45.317707 203.65625 44.239582Q204.1875 43.145832 205.17188 42.630207Q206.15625 42.098957 207.4375 42.098957Q208.375 42.098957 209.125 42.395832Q209.875 42.692707 210.29688 43.239582Q210.73438 43.770832 210.95312 44.645832L209.9375 44.927082Q209.73438 44.270832 209.4375 43.895832Q209.15625 43.520832 208.625 43.302082Q208.09375 43.067707 207.45312 43.067707Q206.67188 43.067707 206.09375 43.302082Q205.53125 43.536457 205.17188 43.927082Q204.82812 44.317707 204.64062 44.786457Q204.3125 45.583332 204.3125 46.505207Q204.3125 47.661457 204.70312 48.442707Q205.10938 49.208332 205.85938 49.583332Q206.60938 49.958332 207.46875 49.958332Q208.20312 49.958332 208.90625 49.677082Q209.60938 49.380207 209.96875 49.067707L209.96875 47.458332L207.45312 47.458332ZM211.875 48.973957L212.90625 48.817707Q213.0 49.442707 213.39062 49.770832Q213.79688 50.098957 214.53125 50.098957Q215.25 50.098957 215.59375 49.817707Q215.95312 49.520832 215.95312 49.114582Q215.95312 48.755207 215.64062 48.552082Q215.42188 48.411457 214.5625 48.192707Q213.40625 47.895832 212.95312 47.692707Q212.51562 47.473957 212.28125 47.098957Q212.04688 46.723957 212.04688 46.255207Q212.04688 45.848957 212.23438 45.489582Q212.42188 45.130207 212.75 44.895832Q213.0 44.723957 213.42188 44.598957Q213.84375 44.473957 214.34375 44.473957Q215.0625 44.473957 215.60938 44.692707Q216.17188 44.895832 216.4375 45.255207Q216.70312 45.614582 216.79688 46.208332L215.76562 46.348957Q215.70312 45.880207 215.35938 45.614582Q215.03125 45.333332 214.40625 45.333332Q213.6875 45.333332 213.375 45.583332Q213.0625 45.817707 213.0625 46.145832Q213.0625 46.348957 213.1875 46.505207Q213.32812 46.677082 213.59375 46.786457Q213.75 46.848957 214.53125 47.052082Q215.65625 47.364582 216.09375 47.552082Q216.53125 47.739582 216.78125 48.098957Q217.03125 48.458332 217.03125 49.005207Q217.03125 49.536457 216.71875 50.005207Q216.42188 50.458332 215.84375 50.723957Q215.26562 50.973957 214.53125 50.973957Q213.3125 50.973957 212.67188 50.473957Q212.04688 49.958332 211.875 48.973957ZM219.29688 50.833332L219.29688 42.239582L220.34375 42.239582L220.34375 45.317707Q221.07812 44.473957 222.20312 44.473957Q222.90625 44.473957 223.40625 44.755207Q223.92188 45.020832 224.14062 45.505207Q224.35938 45.973957 224.35938 46.895832L224.35938 50.833332L223.3125 50.833332L223.3125 46.895832Q223.3125 46.098957 222.96875 45.739582Q222.625 45.380207 222.0 45.380207Q221.53125 45.380207 221.10938 45.630207Q220.70312 45.864582 220.51562 46.286457Q220.34375 46.692707 220.34375 47.427082L220.34375 50.833332L219.29688 50.833332ZM230.35938 50.067707Q229.76562 50.567707 229.21875 50.770832Q228.6875 50.973957 228.0625 50.973957Q227.03125 50.973957 226.48438 50.473957Q225.9375 49.973957 225.9375 49.192707Q225.9375 48.739582 226.14062 48.364582Q226.34375 47.973957 226.6875 47.755207Q227.03125 47.520832 227.45312 47.411457Q227.75 47.317707 228.39062 47.239582Q229.65625 47.098957 230.26562 46.880207Q230.26562 46.661457 230.26562 46.614582Q230.26562 45.958332 229.96875 45.692707Q229.5625 45.348957 228.76562 45.348957Q228.03125 45.348957 227.67188 45.614582Q227.3125 45.864582 227.14062 46.520832L226.10938 46.380207Q226.25 45.723957 226.57812 45.317707Q226.90625 44.911457 227.51562 44.692707Q228.125 44.473957 228.92188 44.473957Q229.71875 44.473957 230.21875 44.661457Q230.71875 44.848957 230.95312 45.130207Q231.1875 45.411457 231.28125 45.848957Q231.32812 46.114582 231.32812 46.817707L231.32812 48.223957Q231.32812 49.692707 231.39062 50.083332Q231.46875 50.473957 231.67188 50.833332L230.5625 50.833332Q230.40625 50.505207 230.35938 50.067707ZM230.26562 47.708332Q229.6875 47.942707 228.54688 48.114582Q227.89062 48.208332 227.625 48.333332Q227.35938 48.442707 227.20312 48.661457Q227.0625 48.880207 227.0625 49.161457Q227.0625 49.583332 227.375 49.864582Q227.70312 50.145832 228.3125 50.145832Q228.92188 50.145832 229.39062 49.880207Q229.875 49.614582 230.09375 49.145832Q230.26562 48.786457 230.26562 48.098957L230.26562 47.708332ZM233.28125 50.833332L233.28125 44.614582L234.23438 44.614582L234.23438 45.552082Q234.59375 44.895832 234.89062 44.692707Q235.20312 44.473957 235.57812 44.473957Q236.10938 44.473957 236.65625 44.802082L236.29688 45.786457Q235.90625 45.552082 235.53125 45.552082Q235.17188 45.552082 234.89062 45.770832Q234.625 45.973957 234.51562 46.348957Q234.32812 46.911457 234.32812 47.567707L234.32812 50.833332L233.28125 50.833332ZM241.54688 48.833332L242.64062 48.958332Q242.39062 49.911457 241.6875 50.442707Q240.98438 50.973957 239.90625 50.973957Q238.54688 50.973957 237.73438 50.130207Q236.9375 49.286457 236.9375 47.770832Q236.9375 46.208332 237.75 45.348957Q238.5625 44.473957 239.84375 44.473957Q241.09375 44.473957 241.875 45.317707Q242.67188 46.161457 242.67188 47.708332Q242.67188 47.802082 242.67188 47.989582L238.03125 47.989582Q238.09375 49.020832 238.60938 49.567707Q239.125 50.098957 239.90625 50.098957Q240.48438 50.098957 240.89062 49.802082Q241.3125 49.489582 241.54688 48.833332ZM238.09375 47.130207L241.5625 47.130207Q241.5 46.333332 241.17188 45.942707Q240.65625 45.333332 239.85938 45.333332Q239.125 45.333332 238.625 45.817707Q238.14062 46.302082 238.09375 47.130207Z" fill-rule="nonzero"/><path stroke="#fbbc04" stroke-width="4.0" stroke-linecap="butt" d="M259.5 46.833332L271.5 46.833332" fill-rule="nonzero"/><path fill="#1a1a1a" d="M282.60938 50.833332L282.60938 43.255207L279.78125 43.255207L279.78125 42.239582L286.59375 42.239582L286.59375 43.255207L283.75 43.255207L283.75 50.833332L282.60938 50.833332ZM286.90625 47.723957Q286.90625 45.989582 287.85938 45.161457Q288.65625 44.473957 289.8125 44.473957Q291.09375 44.473957 291.90625 45.317707Q292.73438 46.145832 292.73438 47.630207Q292.73438 48.833332 292.375 49.520832Q292.01562 50.208332 291.3125 50.598957Q290.625 50.973957 289.8125 50.973957Q288.51562 50.973957 287.70312 50.145832Q286.90625 49.302082 286.90625 47.723957ZM287.98438 47.723957Q287.98438 48.911457 288.5 49.505207Q289.03125 50.098957 289.8125 50.098957Q290.60938 50.098957 291.125 49.505207Q291.64062 48.911457 291.64062 47.692707Q291.64062 46.536457 291.10938 45.942707Q290.59375 45.348957 289.8125 45.348957Q289.03125 45.348957 288.5 45.942707Q287.98438 46.520832 287.98438 47.723957ZM298.375 50.833332L298.375 49.911457Q297.64062 50.973957 296.39062 50.973957Q295.84375 50.973957 295.35938 50.770832Q294.89062 50.552082 294.65625 50.239582Q294.42188 49.911457 294.32812 49.442707Q294.26562 49.145832 294.26562 48.458332L294.26562 44.614582L295.32812 44.614582L295.32812 48.067707Q295.32812 48.880207 295.39062 49.177082Q295.48438 49.583332 295.79688 49.833332Q296.125 50.067707 296.60938 50.067707Q297.07812 50.067707 297.48438 49.833332Q297.90625 49.583332 298.07812 49.161457Q298.26562 48.739582 298.26562 47.942707L298.26562 44.614582L299.3125 44.614582L299.3125 50.833332L298.375 50.833332ZM301.28125 50.833332L301.28125 44.614582L302.23438 44.614582L302.23438 45.552082Q302.59375 44.895832 302.89062 44.692707Q303.20312 44.473957 303.57812 44.473957Q304.10938 44.473957 304.65625 44.802082L304.29688 45.786457Q303.90625 45.552082 303.53125 45.552082Q303.17188 45.552082 302.89062 45.770832Q302.625 45.973957 302.51562 46.348957Q302.32812 46.911457 302.32812 47.567707L302.32812 50.833332L301.28125 50.833332ZM305.29688 50.833332L305.29688 44.614582L306.23438 44.614582L306.23438 45.489582Q306.92188 44.473957 308.21875 44.473957Q308.78125 44.473957 309.25 44.677082Q309.73438 44.880207 309.96875 45.208332Q310.20312 45.536457 310.29688 45.973957Q310.34375 46.270832 310.34375 47.005207L310.34375 50.833332L309.29688 50.833332L309.29688 47.052082Q309.29688 46.395832 309.17188 46.083332Q309.04688 45.770832 308.73438 45.583332Q308.42188 45.380207 308.0 45.380207Q307.32812 45.380207 306.82812 45.817707Q306.34375 46.239582 306.34375 47.427082L306.34375 50.833332L305.29688 50.833332ZM316.35938 50.067707Q315.76562 50.567707 315.21875 50.770832Q314.6875 50.973957 314.0625 50.973957Q313.03125 50.973957 312.48438 50.473957Q311.9375 49.973957 311.9375 49.192707Q311.9375 48.739582 312.14062 48.364582Q312.34375 47.973957 312.6875 47.755207Q313.03125 47.520832 313.45312 47.411457Q313.75 47.317707 314.39062 47.239582Q315.65625 47.098957 316.26562 46.880207Q316.26562 46.661457 316.26562 46.614582Q316.26562 45.958332 315.96875 45.692707Q315.5625 45.348957 314.76562 45.348957Q314.03125 45.348957 313.67188 45.614582Q313.3125 45.864582 313.14062 46.520832L312.10938 46.380207Q312.25 45.723957 312.57812 45.317707Q312.90625 44.911457 313.51562 44.692707Q314.125 44.473957 314.92188 44.473957Q315.71875 44.473957 316.21875 44.661457Q316.71875 44.848957 316.95312 45.130207Q317.1875 45.411457 317.28125 45.848957Q317.32812 46.114582 317.32812 46.817707L317.32812 48.223957Q317.32812 49.692707 317.39062 50.083332Q317.46875 50.473957 317.67188 50.833332L316.5625 50.833332Q316.40625 50.505207 316.35938 50.067707ZM316.26562 47.708332Q315.6875 47.942707 314.54688 48.114582Q313.89062 48.208332 313.625 48.333332Q313.35938 48.442707 313.20312 48.661457Q313.0625 48.880207 313.0625 49.161457Q313.0625 49.583332 313.375 49.864582Q313.70312 50.145832 314.3125 50.145832Q314.92188 50.145832 315.39062 49.880207Q315.875 49.614582 316.09375 49.145832Q316.26562 48.786457 316.26562 48.098957L316.26562 47.708332ZM319.29688 50.833332L319.29688 44.614582L320.23438 44.614582L320.23438 45.489582Q320.53125 45.020832 321.01562 44.755207Q321.5 44.473957 322.125 44.473957Q322.8125 44.473957 323.25 44.755207Q323.70312 45.036457 323.875 45.552082Q324.625 44.473957 325.79688 44.473957Q326.73438 44.473957 327.21875 44.989582Q327.71875 45.489582 327.71875 46.567707L327.71875 50.833332L326.67188 50.833332L326.67188 46.911457Q326.67188 46.286457 326.5625 46.005207Q326.46875 45.723957 326.20312 45.552082Q325.9375 45.380207 325.5625 45.380207Q324.90625 45.380207 324.46875 45.817707Q324.04688 46.255207 324.04688 47.223957L324.04688 50.833332L322.98438 50.833332L322.98438 46.786457Q322.98438 46.083332 322.71875 45.739582Q322.46875 45.380207 321.89062 45.380207Q321.4375 45.380207 321.0625 45.614582Q320.6875 45.848957 320.51562 46.302082Q320.34375 46.755207 320.34375 47.598957L320.34375 50.833332L319.29688 50.833332ZM334.54688 48.833332L335.64062 48.958332Q335.39062 49.911457 334.6875 50.442707Q333.98438 50.973957 332.90625 50.973957Q331.54688 50.973957 330.73438 50.130207Q329.9375 49.286457 329.9375 47.770832Q329.9375 46.208332 330.75 45.348957Q331.5625 44.473957 332.84375 44.473957Q334.09375 44.473957 334.875 45.317707Q335.67188 46.161457 335.67188 47.708332Q335.67188 47.802082 335.67188 47.989582L331.03125 47.989582Q331.09375 49.020832 331.60938 49.567707Q332.125 50.098957 332.90625 50.098957Q333.48438 50.098957 333.89062 49.802082Q334.3125 49.489582 334.54688 48.833332ZM331.09375 47.130207L334.5625 47.130207Q334.5 46.333332 334.17188 45.942707Q333.65625 45.333332 332.85938 45.333332Q332.125 45.333332 331.625 45.817707Q331.14062 46.302082 331.09375 47.130207ZM337.29688 50.833332L337.29688 44.614582L338.23438 44.614582L338.23438 45.489582Q338.92188 44.473957 340.21875 44.473957Q340.78125 44.473957 341.25 44.677082Q341.73438 44.880207 341.96875 45.208332Q342.20312 45.536457 342.29688 45.973957Q342.34375 46.270832 342.34375 47.005207L342.34375 50.833332L341.29688 50.833332L341.29688 47.052082Q341.29688 46.395832 341.17188 46.083332Q341.04688 45.770832 340.73438 45.583332Q340.42188 45.380207 340.0 45.380207Q339.32812 45.380207 338.82812 45.817707Q338.34375 46.239582 338.34375 47.427082L338.34375 50.833332L337.29688 50.833332ZM346.59375 49.895832L346.75 50.817707Q346.29688 50.911457 345.95312 50.911457Q345.375 50.911457 345.0625 50.739582Q344.75 50.552082 344.60938 50.255207Q344.48438 49.958332 344.48438 49.005207L344.48438 45.427082L343.71875 45.427082L343.71875 44.614582L344.48438 44.614582L344.48438 43.067707L345.53125 42.442707L345.53125 44.614582L346.59375 44.614582L346.59375 45.427082L345.53125 45.427082L345.53125 49.067707Q345.53125 49.520832 345.57812 49.645832Q345.64062 49.770832 345.76562 49.848957Q345.89062 49.927082 346.125 49.927082Q346.3125 49.927082 346.59375 49.895832Z" fill-rule="nonzero"/><path fill="#000000" d="M15.33125 27.3L15.33125 17.284374L19.08125 17.284374Q20.2375 17.284374 20.925 17.596874Q21.628124 17.89375 22.01875 18.51875Q22.409374 19.14375 22.409374 19.846874Q22.409374 20.4875 22.05 21.05Q21.70625 21.6125 21.003124 21.971874Q21.909374 22.2375 22.39375 22.878124Q22.89375 23.51875 22.89375 24.39375Q22.89375 25.096874 22.596874 25.70625Q22.3 26.315624 21.8625 26.64375Q21.425 26.971874 20.753124 27.14375Q20.096874 27.3 19.14375 27.3L15.33125 27.3ZM16.659374 21.4875L18.815624 21.4875Q19.70625 21.4875 20.08125 21.378124Q20.596874 21.221874 20.846874 20.878124Q21.096874 20.51875 21.096874 20.003124Q21.096874 19.503124 20.8625 19.128124Q20.628124 18.7375 20.175 18.596874Q19.7375 18.45625 18.659374 18.45625L16.659374 18.45625L16.659374 21.4875ZM16.659374 26.1125L19.14375 26.1125Q19.784374 26.1125 20.05 26.065624Q20.503124 25.9875 20.815624 25.8Q21.128124 25.596874 21.315624 25.2375Q21.51875 24.878124 21.51875 24.39375Q21.51875 23.83125 21.221874 23.425Q20.940624 23.003124 20.425 22.846874Q19.925 22.675 18.971874 22.675L16.659374 22.675L16.659374 26.1125ZM29.190624 24.95625L30.471874 25.1125Q30.159374 26.2375 29.346874 26.8625Q28.534374 27.471874 27.26875 27.471874Q25.675 27.471874 24.7375 26.4875Q23.815624 25.503124 23.815624 23.7375Q23.815624 21.89375 24.753124 20.89375Q25.70625 19.878124 27.20625 19.878124Q28.659374 19.878124 29.58125 20.878124Q30.503124 21.8625 30.503124 23.659374Q30.503124 23.76875 30.503124 23.9875L25.08125 23.9875Q25.159374 25.175 25.753124 25.815624Q26.3625 26.45625 27.284374 26.45625Q27.95625 26.45625 28.425 26.096874Q28.909374 25.7375 29.190624 24.95625ZM25.159374 22.971874L29.20625 22.971874Q29.128124 22.05 28.7375 21.596874Q28.159374 20.89375 27.221874 20.89375Q26.3625 20.89375 25.784374 21.45625Q25.221874 22.01875 25.159374 22.971874ZM32.221874 27.3L32.221874 20.034374L33.33125 20.034374L33.33125 21.065624Q34.128124 19.878124 35.64375 19.878124Q36.3 19.878124 36.846874 20.1125Q37.39375 20.346874 37.659374 20.7375Q37.940624 21.1125 38.05 21.64375Q38.128124 21.9875 38.128124 22.83125L38.128124 27.3L36.89375 27.3L36.89375 22.878124Q36.89375 22.128124 36.753124 21.76875Q36.6125 21.39375 36.2375 21.175Q35.878124 20.940624 35.378124 20.940624Q34.596874 20.940624 34.01875 21.440624Q33.45625 21.940624 33.45625 23.33125L33.45625 27.3L32.221874 27.3ZM44.95625 24.64375L46.175 24.8Q45.971874 26.05 45.14375 26.76875Q44.33125 27.471874 43.14375 27.471874Q41.659374 27.471874 40.753124 26.503124Q39.846874 25.51875 39.846874 23.690624Q39.846874 22.51875 40.2375 21.64375Q40.628124 20.753124 41.425 20.315624Q42.221874 19.878124 43.159374 19.878124Q44.33125 19.878124 45.08125 20.471874Q45.846874 21.065624 46.05 22.175L44.8625 22.3625Q44.690624 21.628124 44.253124 21.26875Q43.815624 20.89375 43.20625 20.89375Q42.26875 20.89375 41.690624 21.565624Q41.1125 22.221874 41.1125 23.659374Q41.1125 25.128124 41.675 25.8Q42.2375 26.45625 43.128124 26.45625Q43.8625 26.45625 44.346874 26.01875Q44.83125 25.565624 44.95625 24.64375ZM47.221874 27.3L47.221874 17.284374L48.45625 17.284374L48.45625 20.878124Q49.315624 19.878124 50.628124 19.878124Q51.440624 19.878124 52.034374 20.20625Q52.628124 20.51875 52.878124 21.08125Q53.14375 21.628124 53.14375 22.70625L53.14375 27.3L51.909374 27.3L51.909374 22.70625Q51.909374 21.76875 51.503124 21.3625Q51.1125 20.940624 50.378124 20.940624Q49.83125 20.940624 49.346874 21.221874Q48.8625 21.503124 48.659374 21.9875Q48.45625 22.471874 48.45625 23.33125L48.45625 27.3L47.221874 27.3ZM55.221874 27.3L55.221874 20.034374L56.33125 20.034374L56.33125 21.065624Q56.659374 20.51875 57.221874 20.20625Q57.8 19.878124 58.51875 19.878124Q59.33125 19.878124 59.846874 20.221874Q60.3625 20.55 60.58125 21.14375Q61.440624 19.878124 62.815624 19.878124Q63.89375 19.878124 64.47188 20.471874Q65.06563 21.065624 65.06563 22.315624L65.06563 27.3L63.83125 27.3L63.83125 22.721874Q63.83125 21.9875 63.70625 21.659374Q63.596874 21.33125 63.284374 21.14375Q62.971874 20.940624 62.55 20.940624Q61.784374 20.940624 61.26875 21.45625Q60.76875 21.95625 60.76875 23.08125L60.76875 27.3L59.534374 27.3L59.534374 22.58125Q59.534374 21.76875 59.2375 21.3625Q58.940624 20.940624 58.253124 20.940624Q57.7375 20.940624 57.284374 21.221874Q56.846874 21.4875 56.64375 22.01875Q56.45625 22.534374 56.45625 23.534374L56.45625 27.3L55.221874 27.3ZM70.95625 26.409374Q70.28438 26.9875 69.64375 27.2375Q69.01875 27.471874 68.28438 27.471874Q67.09688 27.471874 66.44063 26.89375Q65.8 26.3 65.8 25.378124Q65.8 24.846874 66.03438 24.409374Q66.28438 23.971874 66.675 23.70625Q67.08125 23.440624 67.56563 23.3Q67.925 23.20625 68.65938 23.1125Q70.15938 22.940624 70.8625 22.690624Q70.8625 22.440624 70.8625 22.378124Q70.8625 21.6125 70.51875 21.315624Q70.05 20.89375 69.1125 20.89375Q68.25313 20.89375 67.83125 21.20625Q67.425 21.503124 67.22188 22.26875L66.01875 22.1125Q66.175 21.33125 66.55 20.8625Q66.94063 20.39375 67.64375 20.14375Q68.3625 19.878124 69.3 19.878124Q70.22188 19.878124 70.8 20.096874Q71.37813 20.315624 71.64375 20.64375Q71.925 20.971874 72.03438 21.4875Q72.09688 21.8 72.09688 22.6125L72.09688 24.253124Q72.09688 25.971874 72.175 26.425Q72.25313 26.878124 72.4875 27.3L71.20625 27.3Q71.01875 26.909374 70.95625 26.409374ZM70.8625 23.659374Q70.19063 23.925 68.84688 24.128124Q68.09688 24.2375 67.76875 24.378124Q67.45625 24.503124 67.28438 24.76875Q67.1125 25.034374 67.1125 25.346874Q67.1125 25.846874 67.4875 26.175Q67.8625 26.503124 68.58125 26.503124Q69.3 26.503124 69.84688 26.190624Q70.39375 25.878124 70.65938 25.33125Q70.8625 24.925 70.8625 24.1125L70.8625 23.659374ZM74.20625 27.3L74.20625 20.034374L75.31563 20.034374L75.31563 21.14375Q75.7375 20.3625 76.09688 20.128124Q76.45625 19.878124 76.89375 19.878124Q77.51875 19.878124 78.15938 20.26875L77.7375 21.409374Q77.28438 21.14375 76.83125 21.14375Q76.425 21.14375 76.09688 21.39375Q75.78438 21.628124 75.64375 22.065624Q75.44063 22.721874 75.44063 23.503124L75.44063 27.3L74.20625 27.3ZM79.2375 27.3L79.2375 17.284374L80.45625 17.284374L80.45625 22.9875L83.37813 20.034374L84.97188 20.034374L82.19063 22.7375L85.25313 27.3L83.72188 27.3L81.33125 23.58125L80.45625 24.425L80.45625 27.3L79.2375 27.3ZM86.56563 21.440624L86.56563 20.034374L87.97188 20.034374L87.97188 21.440624L86.56563 21.440624ZM86.56563 27.3L86.56563 25.89375L87.97188 25.89375L87.97188 27.3L86.56563 27.3ZM93.925 24.08125L95.175 23.971874Q95.26875 24.721874 95.59688 25.20625Q95.925 25.690624 96.59688 25.9875Q97.28438 26.284374 98.14375 26.284374Q98.89375 26.284374 99.47188 26.065624Q100.06563 25.83125 100.34688 25.440624Q100.62813 25.05 100.62813 24.58125Q100.62813 24.1125 100.34688 23.76875Q100.08125 23.409374 99.45625 23.159374Q99.05 23.003124 97.65938 22.675Q96.28438 22.346874 95.7375 22.05Q95.01875 21.675 94.65938 21.128124Q94.31563 20.565624 94.31563 19.8625Q94.31563 19.1125 94.7375 18.45625Q95.175 17.784374 96.00313 17.45625Q96.83125 17.1125 97.84688 17.1125Q98.95625 17.1125 99.8 17.471874Q100.65938 17.83125 101.1125 18.534374Q101.56563 19.221874 101.6125 20.096874L100.33125 20.190624Q100.2375 19.253124 99.64375 18.76875Q99.05 18.26875 97.89375 18.26875Q96.69063 18.26875 96.14375 18.721874Q95.59688 19.159374 95.59688 19.784374Q95.59688 20.315624 95.9875 20.675Q96.3625 21.01875 97.97188 21.39375Q99.59688 21.753124 100.19063 22.01875Q101.06563 22.425 101.4875 23.05Q101.90938 23.659374 101.90938 24.471874Q101.90938 25.26875 101.44063 25.9875Q100.9875 26.690624 100.12813 27.08125Q99.26875 27.471874 98.20625 27.471874Q96.84688 27.471874 95.925 27.08125Q95.00313 26.675 94.47188 25.878124Q93.95625 25.08125 93.925 24.08125ZM103.22188 18.70625L103.22188 17.284374L104.44063 17.284374L104.44063 18.70625L103.22188 18.70625ZM101.65938 30.1125L101.89375 29.065624Q102.25313 29.159374 102.47188 29.159374Q102.84688 29.159374 103.03438 28.909374Q103.22188 28.675 103.22188 27.675L103.22188 20.034374L104.44063 20.034374L104.44063 27.690624Q104.44063 29.034374 104.09688 29.565624Q103.65938 30.253124 102.62813 30.253124Q102.12813 30.253124 101.65938 30.1125ZM111.19063 24.95625L112.47188 25.1125Q112.15938 26.2375 111.34688 26.8625Q110.53438 27.471874 109.26875 27.471874Q107.675 27.471874 106.7375 26.4875Q105.81563 25.503124 105.81563 23.7375Q105.81563 21.89375 106.75313 20.89375Q107.70625 19.878124 109.20625 19.878124Q110.65938 19.878124 111.58125 20.878124Q112.50313 21.8625 112.50313 23.659374Q112.50313 23.76875 112.50313 23.9875L107.08125 23.9875Q107.15938 25.175 107.75313 25.815624Q108.3625 26.45625 109.28438 26.45625Q109.95625 26.45625 110.425 26.096874Q110.90938 25.7375 111.19063 24.95625ZM107.15938 22.971874L111.20625 22.971874Q111.12813 22.05 110.7375 21.596874Q110.15938 20.89375 109.22188 20.89375Q108.3625 20.89375 107.78438 21.45625Q107.22188 22.01875 107.15938 22.971874ZM114.22188 27.3L114.22188 20.034374L115.33125 20.034374L115.33125 21.065624Q116.12813 19.878124 117.64375 19.878124Q118.3 19.878124 118.84688 20.1125Q119.39375 20.346874 119.65938 20.7375Q119.94063 21.1125 120.05 21.64375Q120.12813 21.9875 120.12813 22.83125L120.12813 27.3L118.89375 27.3L118.89375 22.878124Q118.89375 22.128124 118.75313 21.76875Q118.6125 21.39375 118.2375 21.175Q117.87813 20.940624 117.37813 20.940624Q116.59688 20.940624 116.01875 21.440624Q115.45625 21.940624 115.45625 23.33125L115.45625 27.3L114.22188 27.3ZM122.00313 27.909374L123.19063 28.08125Q123.26875 28.628124 123.6125 28.89375Q124.06563 29.221874 124.8625 29.221874Q125.72188 29.221874 126.175 28.878124Q126.64375 28.55 126.81563 27.925Q126.90938 27.55 126.89375 26.346874Q126.09688 27.3 124.89375 27.3Q123.39375 27.3 122.56563 26.221874Q121.75313 25.14375 121.75313 23.628124Q121.75313 22.596874 122.12813 21.721874Q122.50313 20.83125 123.20625 20.3625Q123.925 19.878124 124.89375 19.878124Q126.175 19.878124 127.01875 20.909374L127.01875 20.034374L128.14375 20.034374L128.14375 26.315624Q128.14375 28.01875 127.8 28.721874Q127.45625 29.425 126.70625 29.83125Q125.95625 30.253124 124.8625 30.253124Q123.56563 30.253124 122.76875 29.659374Q121.97188 29.08125 122.00313 27.909374ZM123.01875 23.534374Q123.01875 24.971874 123.58125 25.628124Q124.14375 26.284374 125.00313 26.284374Q125.84688 26.284374 126.425 25.628124Q127.00313 24.971874 127.00313 23.58125Q127.00313 22.253124 126.40938 21.58125Q125.81563 20.89375 124.9875 20.89375Q124.15938 20.89375 123.58125 21.565624Q123.01875 22.221874 123.01875 23.534374Z" fill-rule="nonzero"/></svg>