<svg version="1.1" viewBox="0.0 0.0 470.0 291.0" fill="none" stroke="none" stroke-linecap="square" stroke-miterlimit="10" width="470" height="291" xmlns:xlink="http://www.w3.org/1999/xlink" xmlns="http://www.w3.org/2000/svg"><path fill="#ffffff" d="M0 0L470.0 0L470.0 291.0L0 291.0L0 0Z" fill-rule="nonzero"/><path stroke="#cccccc" stroke-width="1.0" stroke-linecap="butt" d="M159.5 70.5L159.5 224.5" fill-rule="nonzero"/><path stroke="#cccccc" stroke-width="1.0" stroke-linecap="butt" d="M255.5 70.5L255.5 224.5" fill-rule="nonzero"/><path stroke="#cccccc" stroke-width="1.0" stroke-linecap="butt" d="M350.5 70.5L350.5 224.5" fill-rule="nonzero"/><path stroke="#cccccc" stroke-width="1.0" stroke-linecap="butt" d="M446.5 70.5L446.5 224.5" fill-rule="nonzero"/><path stroke="#333333" stroke-width="1.0" stroke-linecap="butt" d="M76.5 224.5L455.5 224.5" fill-rule="nonzero"/><path stroke="#cccccc" stroke-width="1.0" stroke-linecap="butt" d="M76.5 186.5L455.5 186.5" fill-rule="nonzero"/><path stroke="#cccccc" stroke-width="1.0" stroke-linecap="butt" d="M76.5 147.5L455.5 147.5" fill-rule="nonzero"/><path stroke="#cccccc" stroke-width="1.0" stroke-linecap="butt" d="M76.5 109.5L455.5 109.5" fill-rule="nonzero"/><path stroke="#cccccc" stroke-width="1.0" stroke-linecap="butt" d="M76.5 70.5L455.5 70.5" fill-rule="nonzero"/><clipPath id="id_0"><path d="M76.55 70.95L455.45 70.95L455.45 224.45L76.55 224.45L76.55 70.95Z" clip-rule="nonzero"/></clipPath><path stroke="#4285f4" stroke-width="2.0" stroke-linecap="butt" clip-path="url(#id_0)" d="M76.55 110.52706L162.10806 108.903946L455.45 107.89377" fill-rule="nonzero"/><path stroke="#ea4335" stroke-width="2.0" stroke-linecap="butt" clip-path="url(#id_0)" d="M76.55 118.17673L162.10806 108.4941L455.45 101.18904" fill-rule="nonzero"/><path stroke="#fbbc04" stroke-width="2.0" stroke-linecap="butt" clip-path="url(#id_0)" d="M76.55 110.38185L162.10806 103.697845L455.45 98.52535" fill-rule="nonzero"/><path fill="#000000" fill-opacity="0.0" clip-path="url(#id_0)" d="M79.55 110.52706C79.55 112.183914 78.206856 113.52706 76.55 113.52706C74.89314 113.52706 73.55 112.183914 73.55 110.52706C73.55 108.8702 74.89314 107.52706 76.55 107.52706C78.206856 107.52706 79.55 108.8702 79.55 110.52706Z" fill-rule="nonzero"/><path fill="#000000" fill-opacity="0.0" clip-path="url(#id_0)" d="M165.10806 108.903946C165.10806 110.56081 163.76492 111.903946 162.10806 111.903946C160.45122 111.903946 159.10806 110.56081 159.10806 108.903946C159.10806 107.24709 160.45122 105.903946 162.10806 105.903946C163.76492 105.903946 165.10806 107.24709 165.10806 108.903946Z" fill-rule="nonzero"/><path fill="#000000" fill-opacity="0.0" clip-path="url(#id_0)" d="M458.45 107.89377C458.45 109.55062 457.10684 110.89377 455.45 110.89377C453.79315 110.89377 452.45 109.55062 452.45 107.89377C452.45 106.23691 453.79315 104.89377 455.45 104.89377C457.10684 104.89377 458.45 106.23691 458.45 107.89377Z" fill-rule="nonzero"/><path fill="#000000" fill-opacity="0.0" clip-path="url(#id_0)" d="M79.55 118.17673C79.55 119.83359 78.206856 121.17673 76.55 121.17673C74.89314 121.17673 73.55 119.83359 73.55 118.17673C73.55 116.519875 74.89314 115.17673 76.55 115.17673C78.206856 115.17673 79.55 116.519875 79.55 118.17673Z" fill-rule="nonzero"/><path fill="#000000" fill-opacity="0.0" clip-path="url(#id_0)" d="M165.10806 108.4941C165.10806 110.150955 163.76492 111.4941 162.10806 111.4941C160.45122 111.4941 159.10806 110.150955 159.10806 108.4941C159.10806 106.83725 160.45122 105.4941 162.10806 105.4941C163.76492 105.4941 165.10806 106.83725 165.10806 108.4941Z" fill-rule="nonzero"/><path fill="#000000" fill-opacity="0.0" clip-path="url(#id_0)" d="M458.45 101.18904C458.45 102.845894 457.10684 104.18904 455.45 104.18904C453.79315 104.18904 452.45 102.845894 452.45 101.18904C452.45 99.53219 453.79315 98.18904 455.45 98.18904C457.10684 98.18904 458.45 99.53219 458.45 101.18904Z" fill-rule="nonzero"/><path fill="#000000" fill-opacity="0.0" clip-path="url(#id_0)" d="M79.55 110.38185C79.55 112.038704 78.206856 113.38185 76.55 113.38185C74.89314 113.38185 73.55 112.038704 73.55 110.38185C73.55 108.72499 74.89314 107.38185 76.55 107.38185C78.206856 107.38185 79.55 108.72499 79.55 110.38185Z" fill-rule="nonzero"/><path fill="#000000" fill-opacity="0.0" clip-path="url(#id_0)" d="M165.10806 103.697845C165.10806 105.3547 163.76492 106.697845 162.10806 106.697845C160.45122 106.697845 159.10806 105.3547 159.10806 103.697845C159.10806 102.04099 160.45122 100.697845 162.10806 100.697845C163.76492 100.697845 165.10806 102.04099 165.10806 103.697845Z" fill-rule="nonzero"/><path fill="#000000" fill-opacity="0.0" clip-path="url(#id_0)" d="M458.45 98.52535C458.45 100.182205 457.10684 101.52535 455.45 101.52535C453.79315 101.52535 452.45 100.182205 452.45 98.52535C452.45 96.8685 453.79315 95.52535 455.45 95.52535C457.10684 95.52535 458.45 96.8685 458.45 98.52535Z" fill-rule="nonzero"/><path fill="#000000" d="M203.92188 273.45L203.92188 264.85626L205.07812 264.85626L209.59375 271.60626L209.59375 264.85626L210.6875 264.85626L210.6875 273.45L209.51562 273.45L205.0 266.7L205.0 273.45L203.92188 273.45ZM216.875 273.45L216.875 272.52814Q216.14062 273.59064 214.89062 273.59064Q214.34375 273.59064 213.85938 273.3875Q213.39062 273.16876 213.15625 272.85626Q212.92188 272.52814 212.82812 272.0594Q212.76562 271.7625 212.76562 271.075L212.76562 267.23126L213.82812 267.23126L213.82812 270.6844Q213.82812 271.4969 213.89062 271.79376Q213.98438 272.2 214.29688 272.45Q214.625 272.6844 215.10938 272.6844Q215.57812 272.6844 215.98438 272.45Q216.40625 272.2 216.57812 271.77814Q216.76562 271.35626 216.76562 270.5594L216.76562 267.23126L217.8125 267.23126L217.8125 273.45L216.875 273.45ZM219.79688 273.45L219.79688 267.23126L220.73438 267.23126L220.73438 268.10626Q221.03125 267.6375 221.51562 267.3719Q222.0 267.09064 222.625 267.09064Q223.3125 267.09064 223.75 267.3719Q224.20312 267.65314 224.375 268.16876Q225.125 267.09064 226.29688 267.09064Q227.23438 267.09064 227.71875 267.60626Q228.21875 268.10626 228.21875 269.1844L228.21875 273.45L227.17188 273.45L227.17188 269.52814Q227.17188 268.90314 227.0625 268.6219Q226.96875 268.34064 226.70312 268.16876Q226.4375 267.9969 226.0625 267.9969Q225.40625 267.9969 224.96875 268.4344Q224.54688 268.8719 224.54688 269.84064L224.54688 273.45L223.48438 273.45L223.48438 269.40314Q223.48438 268.7 223.21875 268.35626Q222.96875 267.9969 222.39062 267.9969Q221.9375 267.9969 221.5625 268.23126Q221.1875 268.46564 221.01562 268.91876Q220.84375 269.3719 220.84375 270.21564L220.84375 273.45L219.79688 273.45ZM231.76562 273.45L230.78125 273.45L230.78125 264.85626L231.84375 264.85626L231.84375 267.91876Q232.51562 267.09064 233.54688 267.09064Q234.125 267.09064 234.625 267.325Q235.14062 267.54376 235.46875 267.96564Q235.8125 268.3875 236.0 268.98126Q236.1875 269.575 236.1875 270.2469Q236.1875 271.84064 235.39062 272.71564Q234.59375 273.59064 233.5 273.59064Q232.39062 273.59064 231.76562 272.66876L231.76562 273.45ZM231.75 270.29376Q231.75 271.40314 232.0625 271.90314Q232.5625 272.71564 233.40625 272.71564Q234.09375 272.71564 234.59375 272.1219Q235.10938 271.52814 235.10938 270.325Q235.10938 269.10626 234.625 268.52814Q234.14062 267.95 233.45312 267.95Q232.76562 267.95 232.25 268.5594Q231.75 269.15314 231.75 270.29376ZM242.04688 271.45L243.14062 271.575Q242.89062 272.52814 242.1875 273.0594Q241.48438 273.59064 240.40625 273.59064Q239.04688 273.59064 238.23438 272.7469Q237.4375 271.90314 237.4375 270.3875Q237.4375 268.825 238.25 267.96564Q239.0625 267.09064 240.34375 267.09064Q241.59375 267.09064 242.375 267.9344Q243.17188 268.77814 243.17188 270.325Q243.17188 270.41876 243.17188 270.60626L238.53125 270.60626Q238.59375 271.6375 239.10938 272.1844Q239.625 272.71564 240.40625 272.71564Q240.98438 272.71564 241.39062 272.41876Q241.8125 272.10626 242.04688 271.45ZM238.59375 269.7469L242.0625 269.7469Q242.0 268.95 241.67188 268.5594Q241.15625 267.95 240.35938 267.95Q239.625 267.95 239.125 268.4344Q238.64062 268.91876 238.59375 269.7469ZM244.78125 273.45L244.78125 267.23126L245.73438 267.23126L245.73438 268.16876Q246.09375 267.5125 246.39062 267.3094Q246.70312 267.09064 247.07812 267.09064Q247.60938 267.09064 248.15625 267.41876L247.79688 268.40314Q247.40625 268.16876 247.03125 268.16876Q246.67188 268.16876 246.39062 268.3875Q246.125 268.59064 246.01562 268.96564Q245.82812 269.52814 245.82812 270.1844L245.82812 273.45L244.78125 273.45ZM251.40625 270.34064Q251.40625 268.60626 252.35938 267.77814Q253.15625 267.09064 254.3125 267.09064Q255.59375 267.09064 256.40625 267.9344Q257.23438 268.7625 257.23438 270.2469Q257.23438 271.45 256.875 272.1375Q256.51562 272.825 255.8125 273.21564Q255.125 273.59064 254.3125 273.59064Q253.01562 273.59064 252.20312 272.7625Q251.40625 271.91876 251.40625 270.34064ZM252.48438 270.34064Q252.48438 271.52814 253.0 272.1219Q253.53125 272.71564 254.3125 272.71564Q255.10938 272.71564 255.625 272.1219Q256.14062 271.52814 256.14062 270.3094Q256.14062 269.15314 255.60938 268.5594Q255.09375 267.96564 254.3125 267.96564Q253.53125 267.96564 253.0 268.5594Q252.48438 269.1375 252.48438 270.34064ZM259.04688 273.45L259.04688 268.04376L258.10938 268.04376L258.10938 267.23126L259.04688 267.23126L259.04688 266.5594Q259.04688 265.9344 259.15625 265.6375Q259.3125 265.21564 259.6875 264.96564Q260.07812 264.71564 260.76562 264.71564Q261.21875 264.71564 261.75 264.825L261.59375 265.73126Q261.26562 265.6844 260.96875 265.6844Q260.48438 265.6844 260.28125 265.8875Q260.09375 266.09064 260.09375 266.65314L260.09375 267.23126L261.3125 267.23126L261.3125 268.04376L260.09375 268.04376L260.09375 273.45L259.04688 273.45ZM264.92188 273.45L264.92188 264.85626L268.17188 264.85626Q269.01562 264.85626 269.46875 264.9344Q270.10938 265.04376 270.53125 265.34064Q270.96875 265.6375 271.21875 266.16876Q271.48438 266.7 271.48438 267.34064Q271.48438 268.4344 270.78125 269.2Q270.09375 269.95 268.26562 269.95L266.0625 269.95L266.0625 273.45L264.92188 273.45ZM266.0625 268.95L268.28125 268.95Q269.39062 268.95 269.84375 268.54376Q270.3125 268.1219 270.3125 267.3719Q270.3125 266.84064 270.03125 266.46564Q269.76562 266.075 269.32812 265.95Q269.03125 265.8719 268.26562 265.8719L266.0625 265.8719L266.0625 268.95ZM272.96875 273.45L272.96875 264.85626L274.09375 264.85626L274.09375 268.3875L278.5625 268.3875L278.5625 264.85626L279.70312 264.85626L279.70312 273.45L278.5625 273.45L278.5625 269.40314L274.09375 269.40314L274.09375 273.45L272.96875 273.45ZM284.10938 273.45L284.10938 265.8719L281.28125 265.8719L281.28125 264.85626L288.09375 264.85626L288.09375 265.8719L285.25 265.8719L285.25 273.45L284.10938 273.45ZM296.04688 271.45L297.14062 271.575Q296.89062 272.52814 296.1875 273.0594Q295.48438 273.59064 294.40625 273.59064Q293.04688 273.59064 292.23438 272.7469Q291.4375 271.90314 291.4375 270.3875Q291.4375 268.825 292.25 267.96564Q293.0625 267.09064 294.34375 267.09064Q295.59375 267.09064 296.375 267.9344Q297.17188 268.77814 297.17188 270.325Q297.17188 270.41876 297.17188 270.60626L292.53125 270.60626Q292.59375 271.6375 293.10938 272.1844Q293.625 272.71564 294.40625 272.71564Q294.98438 272.71564 295.39062 272.41876Q295.8125 272.10626 296.04688 271.45ZM292.59375 269.7469L296.0625 269.7469Q296.0 268.95 295.67188 268.5594Q295.15625 267.95 294.35938 267.95Q293.625 267.95 293.125 268.4344Q292.64062 268.91876 292.59375 269.7469ZM298.79688 273.45L298.79688 267.23126L299.73438 267.23126L299.73438 268.10626Q300.42188 267.09064 301.71875 267.09064Q302.28125 267.09064 302.75 267.29376Q303.23438 267.4969 303.46875 267.825Q303.70312 268.15314 303.79688 268.59064Q303.84375 268.8875 303.84375 269.6219L303.84375 273.45L302.79688 273.45L302.79688 269.66876Q302.79688 269.0125 302.67188 268.7Q302.54688 268.3875 302.23438 268.2Q301.92188 267.9969 301.5 267.9969Q300.82812 267.9969 300.32812 268.4344Q299.84375 268.85626 299.84375 270.04376L299.84375 273.45L298.79688 273.45ZM308.09375 272.5125L308.25 273.4344Q307.79688 273.52814 307.45312 273.52814Q306.875 273.52814 306.5625 273.35626Q306.25 273.16876 306.10938 272.8719Q305.98438 272.575 305.98438 271.6219L305.98438 268.04376L305.21875 268.04376L305.21875 267.23126L305.98438 267.23126L305.98438 265.6844L307.03125 265.0594L307.03125 267.23126L308.09375 267.23126L308.09375 268.04376L307.03125 268.04376L307.03125 271.6844Q307.03125 272.1375 307.07812 272.2625Q307.14062 272.3875 307.26562 272.46564Q307.39062 272.54376 307.625 272.54376Q307.8125 272.54376 308.09375 272.5125ZM308.78125 273.45L308.78125 267.23126L309.73438 267.23126L309.73438 268.16876Q310.09375 267.5125 310.39062 267.3094Q310.70312 267.09064 311.07812 267.09064Q311.60938 267.09064 312.15625 267.41876L311.79688 268.40314Q311.40625 268.16876 311.03125 268.16876Q310.67188 268.16876 310.39062 268.3875Q310.125 268.59064 310.01562 268.96564Q309.82812 269.52814 309.82812 270.1844L309.82812 273.45L308.78125 273.45ZM312.79688 266.075L312.79688 264.85626L313.85938 264.85626L313.85938 266.075L312.79688 266.075ZM312.79688 273.45L312.79688 267.23126L313.85938 267.23126L313.85938 273.45L312.79688 273.45ZM320.04688 271.45L321.14062 271.575Q320.89062 272.52814 320.1875 273.0594Q319.48438 273.59064 318.40625 273.59064Q317.04688 273.59064 316.23438 272.7469Q315.4375 271.90314 315.4375 270.3875Q315.4375 268.825 316.25 267.96564Q317.0625 267.09064 318.34375 267.09064Q319.59375 267.09064 320.375 267.9344Q321.17188 268.77814 321.17188 270.325Q321.17188 270.41876 321.17188 270.60626L316.53125 270.60626Q316.59375 271.6375 317.10938 272.1844Q317.625 272.71564 318.40625 272.71564Q318.98438 272.71564 319.39062 272.41876Q319.8125 272.10626 320.04688 271.45ZM316.59375 269.7469L320.0625 269.7469Q320.0 268.95 319.67188 268.5594Q319.15625 267.95 318.35938 267.95Q317.625 267.95 317.125 268.4344Q316.64062 268.91876 316.59375 269.7469ZM322.375 271.59064L323.40625 271.4344Q323.5 272.0594 323.89062 272.3875Q324.29688 272.71564 325.03125 272.71564Q325.75 272.71564 326.09375 272.4344Q326.45312 272.1375 326.45312 271.73126Q326.45312 271.3719 326.14062 271.16876Q325.92188 271.02814 325.0625 270.8094Q323.90625 270.5125 323.45312 270.3094Q323.01562 270.09064 322.78125 269.71564Q322.54688 269.34064 322.54688 268.8719Q322.54688 268.46564 322.73438 268.10626Q322.92188 267.7469 323.25 267.5125Q323.5 267.34064 323.92188 267.21564Q324.34375 267.09064 324.84375 267.09064Q325.5625 267.09064 326.10938 267.3094Q326.67188 267.5125 326.9375 267.8719Q327.20312 268.23126 327.29688 268.825L326.26562 268.96564Q326.20312 268.4969 325.85938 268.23126Q325.53125 267.95 324.90625 267.95Q324.1875 267.95 323.875 268.2Q323.5625 268.4344 323.5625 268.7625Q323.5625 268.96564 323.6875 269.1219Q323.82812 269.29376 324.09375 269.40314Q324.25 269.46564 325.03125 269.66876Q326.15625 269.98126 326.59375 270.16876Q327.03125 270.35626 327.28125 270.71564Q327.53125 271.075 327.53125 271.6219Q327.53125 272.15314 327.21875 272.6219Q326.92188 273.075 326.34375 273.34064Q325.76562 273.59064 325.03125 273.59064Q323.8125 273.59064 323.17188 273.09064Q322.54688 272.575 322.375 271.59064Z" fill-rule="nonzero"/><path fill="#000000" d="M25.549997 206.27812L16.956247 206.27812L16.956247 203.02812Q16.956247 202.18437 17.034372 201.73125Q17.143747 201.09062 17.440622 200.66875Q17.737497 200.23125 18.268747 199.98125Q18.799997 199.71562 19.440622 199.71562Q20.534372 199.71562 21.299997 200.41875Q22.049997 201.10625 22.049997 202.93437L22.049997 205.1375L25.549997 205.1375L25.549997 206.27812ZM21.049997 205.1375L21.049997 202.91875Q21.049997 201.80937 20.643747 201.35625Q20.221872 200.8875 19.471872 200.8875Q18.940622 200.8875 18.565622 201.16875Q18.174997 201.43437 18.049997 201.87187Q17.971872 202.16875 17.971872 202.93437L17.971872 205.1375L21.049997 205.1375ZM25.549997 198.41875L19.331247 198.41875L19.331247 197.46562L20.268747 197.46562Q19.612497 197.10625 19.409372 196.80937Q19.190622 196.49687 19.190622 196.12187Q19.190622 195.59062 19.518747 195.04375L20.503122 195.40312Q20.268747 195.79375 20.268747 196.16875Q20.268747 196.52812 20.487497 196.80937Q20.690622 197.075 21.065622 197.18437Q21.628122 197.37187 22.284372 197.37187L25.549997 197.37187L25.549997 198.41875ZM23.549997 190.15312L23.674997 189.05937Q24.628122 189.30937 25.159372 190.0125Q25.690622 190.71562 25.690622 191.79375Q25.690622 193.15312 24.846872 193.96562Q24.003122 194.7625 22.487497 194.7625Q20.924997 194.7625 20.065622 193.95Q19.190622 193.1375 19.190622 191.85625Q19.190622 190.60625 20.034372 189.825Q20.878122 189.02812 22.424997 189.02812Q22.518747 189.02812 22.706247 189.02812L22.706247 193.66875Q23.737497 193.60625 24.284372 193.09062Q24.815622 192.575 24.815622 191.79375Q24.815622 191.21562 24.518747 190.80937Q24.206247 190.3875 23.549997 190.15312ZM21.846872 193.60625L21.846872 190.1375Q21.049997 190.2 20.659372 190.52812Q20.049997 191.04375 20.049997 191.84062Q20.049997 192.575 20.534372 193.075Q21.018747 193.55937 21.846872 193.60625ZM25.549997 183.37187L24.768747 183.37187Q25.690622 183.96562 25.690622 185.10625Q25.690622 185.85625 25.284372 186.48125Q24.862497 187.10625 24.128122 187.45Q23.393747 187.79375 22.440622 187.79375Q21.518747 187.79375 20.753122 187.48125Q19.987497 187.16875 19.596872 186.54375Q19.190622 185.91875 19.190622 185.15312Q19.190622 184.59062 19.424997 184.15312Q19.659372 183.71562 20.034372 183.43437L16.956247 183.43437L16.956247 182.3875L25.549997 182.3875L25.549997 183.37187ZM22.440622 186.7Q23.643747 186.7 24.237497 186.2Q24.815622 185.7 24.815622 185.0125Q24.815622 184.325 24.253122 183.84062Q23.690622 183.35625 22.534372 183.35625Q21.253122 183.35625 20.659372 183.85625Q20.065622 184.34062 20.065622 185.05937Q20.065622 185.7625 20.643747 186.23125Q21.206247 186.7 22.440622 186.7ZM18.174997 180.40312L16.956247 180.40312L16.956247 179.34062L18.174997 179.34062L18.174997 180.40312ZM25.549997 180.40312L19.331247 180.40312L19.331247 179.34062L25.549997 179.34062L25.549997 180.40312ZM23.268747 173.34062L23.409372 172.30937Q24.471872 172.48125 25.081247 173.18437Q25.690622 173.8875 25.690622 174.90312Q25.690622 176.18437 24.862497 176.96562Q24.018747 177.73125 22.456247 177.73125Q21.456247 177.73125 20.706247 177.40312Q19.940622 177.05937 19.565622 176.3875Q19.190622 175.7 19.190622 174.8875Q19.190622 173.8875 19.706247 173.24687Q20.206247 172.59062 21.159372 172.40312L21.315622 173.43437Q20.690622 173.575 20.378122 173.95Q20.049997 174.325 20.049997 174.85625Q20.049997 175.65312 20.628122 176.15312Q21.190622 176.65312 22.424997 176.65312Q23.690622 176.65312 24.253122 176.16875Q24.815622 175.68437 24.815622 174.91875Q24.815622 174.29375 24.440622 173.8875Q24.065622 173.46562 23.268747 173.34062ZM24.612497 169.10625L25.534372 168.95Q25.628122 169.40312 25.628122 169.74687Q25.628122 170.325 25.456247 170.6375Q25.268747 170.95 24.971872 171.09062Q24.674997 171.21562 23.721872 171.21562L20.143747 171.21562L20.143747 171.98125L19.331247 171.98125L19.331247 171.21562L17.784372 171.21562L17.159372 170.16875L19.331247 170.16875L19.331247 169.10625L20.143747 169.10625L20.143747 170.16875L23.784372 170.16875Q24.237497 170.16875 24.362497 170.12187Q24.487497 170.05937 24.565622 169.93437Q24.643747 169.80937 24.643747 169.575Q24.643747 169.3875 24.612497 169.10625ZM18.174997 168.40312L16.956247 168.40312L16.956247 167.34062L18.174997 167.34062L18.174997 168.40312ZM25.549997 168.40312L19.331247 168.40312L19.331247 167.34062L25.549997 167.34062L25.549997 168.40312ZM22.440622 165.79375Q20.706247 165.79375 19.878122 164.84062Q19.190622 164.04375 19.190622 162.8875Q19.190622 161.60625 20.034372 160.79375Q20.862497 159.96562 22.346872 159.96562Q23.549997 159.96562 24.237497 160.325Q24.924997 160.68437 25.315622 161.3875Q25.690622 162.075 25.690622 162.8875Q25.690622 164.18437 24.862497 164.99687Q24.018747 165.79375 22.440622 165.79375ZM22.440622 164.71562Q23.628122 164.71562 24.221872 164.2Q24.815622 163.66875 24.815622 162.8875Q24.815622 162.09062 24.221872 161.575Q23.628122 161.05937 22.409372 161.05937Q21.253122 161.05937 20.659372 161.59062Q20.065622 162.10625 20.065622 162.8875Q20.065622 163.66875 20.659372 164.2Q21.237497 164.71562 22.440622 164.71562ZM25.549997 158.40312L19.331247 158.40312L19.331247 157.46562L20.206247 157.46562Q19.190622 156.77812 19.190622 155.48125Q19.190622 154.91875 19.393747 154.45Q19.596872 153.96562 19.924997 153.73125Q20.253122 153.49687 20.690622 153.40312Q20.987497 153.35625 21.721872 153.35625L25.549997 153.35625L25.549997 154.40312L21.768747 154.40312Q21.112497 154.40312 20.799997 154.52812Q20.487497 154.65312 20.299997 154.96562Q20.096872 155.27812 20.096872 155.7Q20.096872 156.37187 20.534372 156.87187Q20.956247 157.35625 22.143747 157.35625L25.549997 157.35625L25.549997 158.40312ZM25.549997 149.21562L16.956247 145.91875L16.956247 144.7L25.549997 141.18437L25.549997 142.46562L22.940622 143.48125L22.940622 147.05937L25.549997 148.0125L25.549997 149.21562ZM22.018747 146.73125L22.018747 143.825L19.643747 144.71562Q18.565622 145.1375 17.862497 145.325Q18.690622 145.49687 19.503122 145.79375L22.018747 146.73125ZM23.268747 137.34062L23.409372 136.30937Q24.471872 136.48125 25.081247 137.18437Q25.690622 137.8875 25.690622 138.90312Q25.690622 140.18437 24.862497 140.96562Q24.018747 141.73125 22.456247 141.73125Q21.456247 141.73125 20.706247 141.40312Q19.940622 141.05937 19.565622 140.3875Q19.190622 139.7 19.190622 138.8875Q19.190622 137.8875 19.706247 137.24687Q20.206247 136.59062 21.159372 136.40312L21.315622 137.43437Q20.690622 137.575 20.378122 137.95Q20.049997 138.325 20.049997 138.85625Q20.049997 139.65312 20.628122 140.15312Q21.190622 140.65312 22.424997 140.65312Q23.690622 140.65312 24.253122 140.16875Q24.815622 139.68437 24.815622 138.91875Q24.815622 138.29375 24.440622 137.8875Q24.065622 137.46562 23.268747 137.34062ZM23.268747 131.34062L23.409372 130.30937Q24.471872 130.48125 25.081247 131.18437Q25.690622 131.8875 25.690622 132.90312Q25.690622 134.18437 24.862497 134.96562Q24.018747 135.73125 22.456247 135.73125Q21.456247 135.73125 20.706247 135.40312Q19.940622 135.05937 19.565622 134.3875Q19.190622 133.7 19.190622 132.8875Q19.190622 131.8875 19.706247 131.24687Q20.206247 130.59062 21.159372 130.40312L21.315622 131.43437Q20.690622 131.575 20.378122 131.95Q20.049997 132.325 20.049997 132.85625Q20.049997 133.65312 20.628122 134.15312Q21.190622 134.65312 22.424997 134.65312Q23.690622 134.65312 24.253122 134.16875Q24.815622 133.68437 24.815622 132.91875Q24.815622 132.29375 24.440622 131.8875Q24.065622 131.46562 23.268747 131.34062ZM25.549997 125.325L24.628122 125.325Q25.690622 126.05937 25.690622 127.30937Q25.690622 127.85625 25.487497 128.34062Q25.268747 128.80937 24.956247 129.04375Q24.628122 129.27812 24.159372 129.37187Q23.862497 129.43437 23.174997 129.43437L19.331247 129.43437L19.331247 128.37187L22.784372 128.37187Q23.596872 128.37187 23.893747 128.30937Q24.299997 128.21562 24.549997 127.90312Q24.784372 127.575 24.784372 127.09062Q24.784372 126.62187 24.549997 126.21562Q24.299997 125.79375 23.878122 125.62187Q23.456247 125.43437 22.659372 125.43437L19.331247 125.43437L19.331247 124.3875L25.549997 124.3875L25.549997 125.325ZM25.549997 122.41875L19.331247 122.41875L19.331247 121.46562L20.268747 121.46562Q19.612497 121.10625 19.409372 120.80937Q19.190622 120.49687 19.190622 120.12187Q19.190622 119.59062 19.518747 119.04375L20.503122 119.40312Q20.268747 119.79375 20.268747 120.16875Q20.268747 120.52812 20.487497 120.80937Q20.690622 121.075 21.065622 121.18437Q21.628122 121.37187 22.284372 121.37187L25.549997 121.37187L25.549997 122.41875ZM24.784372 114.34062Q25.284372 114.93437 25.487497 115.48125Q25.690622 116.0125 25.690622 116.6375Q25.690622 117.66875 25.190622 118.21562Q24.690622 118.7625 23.909372 118.7625Q23.456247 118.7625 23.081247 118.55937Q22.690622 118.35625 22.471872 118.0125Q22.237497 117.66875 22.128122 117.24687Q22.034372 116.95 21.956247 116.30937Q21.815622 115.04375 21.596872 114.43437Q21.378122 114.43437 21.331247 114.43437Q20.674997 114.43437 20.409372 114.73125Q20.065622 115.1375 20.065622 115.93437Q20.065622 116.66875 20.331247 117.02812Q20.581247 117.3875 21.237497 117.55937L21.096872 118.59062Q20.440622 118.45 20.034372 118.12187Q19.628122 117.79375 19.409372 117.18437Q19.190622 116.575 19.190622 115.77812Q19.190622 114.98125 19.378122 114.48125Q19.565622 113.98125 19.846872 113.74687Q20.128122 113.5125 20.565622 113.41875Q20.831247 113.37187 21.534372 113.37187L22.940622 113.37187Q24.409372 113.37187 24.799997 113.30937Q25.190622 113.23125 25.549997 113.02812L25.549997 114.1375Q25.221872 114.29375 24.784372 114.34062ZM22.424997 114.43437Q22.659372 115.0125 22.831247 116.15312Q22.924997 116.80937 23.049997 117.075Q23.159372 117.34062 23.378122 117.49687Q23.596872 117.6375 23.878122 117.6375Q24.299997 117.6375 24.581247 117.325Q24.862497 116.99687 24.862497 116.3875Q24.862497 115.77812 24.596872 115.30937Q24.331247 114.825 23.862497 114.60625Q23.503122 114.43437 22.815622 114.43437L22.424997 114.43437ZM23.268747 107.34062L23.409372 106.30937Q24.471872 106.48125 25.081247 107.18437Q25.690622 107.8875 25.690622 108.90312Q25.690622 110.18437 24.862497 110.96562Q24.018747 111.73125 22.456247 111.73125Q21.456247 111.73125 20.706247 111.40312Q19.940622 111.05937 19.565622 110.3875Q19.190622 109.7 19.190622 108.8875Q19.190622 107.8875 19.706247 107.24687Q20.206247 106.59062 21.159372 106.40312L21.315622 107.43437Q20.690622 107.575 20.378122 107.95Q20.049997 108.325 20.049997 108.85625Q20.049997 109.65312 20.628122 110.15312Q21.190622 110.65312 22.424997 110.65312Q23.690622 110.65312 24.253122 110.16875Q24.815622 109.68437 24.815622 108.91875Q24.815622 108.29375 24.440622 107.8875Q24.065622 107.46562 23.268747 107.34062ZM27.940638 105.45L26.956263 105.575Q27.050013 105.23125 27.050013 104.96562Q27.050013 104.62187 26.925013 104.41875Q26.815638 104.2 26.612513 104.05937Q26.440638 103.96562 25.815622 103.73125Q25.737497 103.71562 25.565622 103.6375L19.331247 106.0125L19.331247 104.87187L22.924997 103.575Q23.612497 103.325 24.378122 103.12187Q23.643747 102.93437 22.956247 102.68437L19.331247 101.35625L19.331247 100.30937L25.659372 102.66875Q26.675013 103.05937 27.065638 103.2625Q27.596888 103.54375 27.831263 103.91875Q28.081263 104.27812 28.081263 104.77812Q28.081263 105.075 27.940638 105.45Z" fill-rule="nonzero"/><path fill="#000000" d="M47.05 224.21562Q47.05 222.68437 47.3625 221.7625Q47.675 220.825 48.284374 220.325Q48.909374 219.825 49.846874 219.825Q50.534374 219.825 51.05 220.10625Q51.58125 220.3875 51.925 220.91875Q52.26875 221.43437 52.45625 222.18437Q52.64375 222.93437 52.64375 224.21562Q52.64375 225.73125 52.33125 226.65312Q52.034374 227.575 51.409374 228.09062Q50.8 228.59062 49.846874 228.59062Q48.6125 228.59062 47.89375 227.7Q47.05 226.6375 47.05 224.21562ZM48.128124 224.21562Q48.128124 226.325 48.628124 227.02812Q49.128124 227.73125 49.846874 227.73125Q50.58125 227.73125 51.065624 227.02812Q51.565624 226.325 51.565624 224.21562Q51.565624 222.09062 51.065624 221.40312Q50.58125 220.7 49.83125 220.7Q49.1125 220.7 48.675 221.30937Q48.128124 222.09062 48.128124 224.21562ZM54.64375 228.45L54.64375 227.24687L55.846874 227.24687L55.846874 228.45L54.64375 228.45ZM57.05 224.21562Q57.05 222.68437 57.3625 221.7625Q57.675 220.825 58.284374 220.325Q58.909374 219.825 59.846874 219.825Q60.534374 219.825 61.05 220.10625Q61.58125 220.3875 61.925 220.91875Q62.26875 221.43437 62.45625 222.18437Q62.64375 222.93437 62.64375 224.21562Q62.64375 225.73125 62.33125 226.65312Q62.034374 227.575 61.409374 228.09062Q60.8 228.59062 59.846874 228.59062Q58.6125 228.59062 57.89375 227.7Q57.05 226.6375 57.05 224.21562ZM58.128124 224.21562Q58.128124 226.325 58.628124 227.02812Q59.128124 227.73125 59.846874 227.73125Q60.58125 227.73125 61.065624 227.02812Q61.565624 226.325 61.565624 224.21562Q61.565624 222.09062 61.065624 221.40312Q60.58125 220.7 59.83125 220.7Q59.1125 220.7 58.675 221.30937Q58.128124 222.09062 58.128124 224.21562ZM64.05 224.21562Q64.05 222.68437 64.3625 221.7625Q64.675 220.825 65.28438 220.325Q65.90938 219.825 66.84688 219.825Q67.53438 219.825 68.05 220.10625Q68.58125 220.3875 68.925 220.91875Q69.26875 221.43437 69.45625 222.18437Q69.64375 222.93437 69.64375 224.21562Q69.64375 225.73125 69.33125 226.65312Q69.03438 227.575 68.40938 228.09062Q67.8 228.59062 66.84688 228.59062Q65.6125 228.59062 64.89375 227.7Q64.05 226.6375 64.05 224.21562ZM65.12813 224.21562Q65.12813 226.325 65.62813 227.02812Q66.12813 227.73125 66.84688 227.73125Q67.58125 227.73125 68.06563 227.02812Q68.56563 226.325 68.56563 224.21562Q68.56563 222.09062 68.06563 221.40312Q67.58125 220.7 66.83125 220.7Q66.1125 220.7 65.675 221.30937Q65.12813 222.09062 65.12813 224.21562Z" fill-rule="nonzero"/><path fill="#000000" d="M47.05 185.84062Q47.05 184.30937 47.3625 183.3875Q47.675 182.45 48.284374 181.95Q48.909374 181.45 49.846874 181.45Q50.534374 181.45 51.05 181.73125Q51.58125 182.0125 51.925 182.54375Q52.26875 183.05937 52.45625 183.80937Q52.64375 184.55937 52.64375 185.84062Q52.64375 187.35625 52.33125 188.27812Q52.034374 189.2 51.409374 189.71562Q50.8 190.21562 49.846874 190.21562Q48.6125 190.21562 47.89375 189.325Q47.05 188.2625 47.05 185.84062ZM48.128124 185.84062Q48.128124 187.95 48.628124 188.65312Q49.128124 189.35625 49.846874 189.35625Q50.58125 189.35625 51.065624 188.65312Q51.565624 187.95 51.565624 185.84062Q51.565624 183.71562 51.065624 183.02812Q50.58125 182.325 49.83125 182.325Q49.1125 182.325 48.675 182.93437Q48.128124 183.71562 48.128124 185.84062ZM54.64375 190.075L54.64375 188.87187L55.846874 188.87187L55.846874 190.075L54.64375 190.075ZM62.596874 189.05937L62.596874 190.075L56.909374 190.075Q56.909374 189.7 57.034374 189.34062Q57.253124 188.7625 57.721874 188.2Q58.20625 187.6375 59.1125 186.90312Q60.51875 185.74687 61.003124 185.075Q61.503124 184.40312 61.503124 183.80937Q61.503124 183.18437 61.05 182.7625Q60.596874 182.325 59.878124 182.325Q59.1125 182.325 58.659374 182.77812Q58.20625 183.23125 58.190624 184.04375L57.1125 183.93437Q57.221874 182.71562 57.940624 182.09062Q58.675 181.45 59.909374 181.45Q61.14375 181.45 61.8625 182.1375Q62.58125 182.825 62.58125 183.84062Q62.58125 184.35625 62.3625 184.85625Q62.159374 185.34062 61.659374 185.90312Q61.175 186.45 60.05 187.40312Q59.096874 188.2 58.815624 188.49687Q58.55 188.77812 58.378124 189.05937L62.596874 189.05937ZM64.05 187.825L65.15938 187.73125Q65.28438 188.54375 65.72188 188.95Q66.175 189.35625 66.81563 189.35625Q67.56563 189.35625 68.09688 188.77812Q68.62813 188.2 68.62813 187.2625Q68.62813 186.35625 68.1125 185.84062Q67.6125 185.30937 66.78438 185.30937Q66.28438 185.30937 65.8625 185.54375Q65.45625 185.77812 65.22188 186.1375L64.2375 186.0125L65.06563 181.60625L69.34688 181.60625L69.34688 182.60625L65.90938 182.60625L65.45625 184.91875Q66.22188 184.37187 67.06563 184.37187Q68.19063 184.37187 68.95625 185.15312Q69.7375 185.93437 69.7375 187.16875Q69.7375 188.325 69.06563 189.18437Q68.2375 190.21562 66.81563 190.21562Q65.64375 190.21562 64.89375 189.55937Q64.15938 188.90312 64.05 187.825Z" fill-rule="nonzero"/><path fill="#000000" d="M47.05 147.46562Q47.05 145.93437 47.3625 145.0125Q47.675 144.075 48.284374 143.575Q48.909374 143.075 49.846874 143.075Q50.534374 143.075 51.05 143.35625Q51.58125 143.6375 51.925 144.16875Q52.26875 144.68437 52.45625 145.43437Q52.64375 146.18437 52.64375 147.46562Q52.64375 148.98125 52.33125 149.90312Q52.034374 150.825 51.409374 151.34062Q50.8 151.84062 49.846874 151.84062Q48.6125 151.84062 47.89375 150.95Q47.05 149.8875 47.05 147.46562ZM48.128124 147.46562Q48.128124 149.575 48.628124 150.27812Q49.128124 150.98125 49.846874 150.98125Q50.58125 150.98125 51.065624 150.27812Q51.565624 149.575 51.565624 147.46562Q51.565624 145.34062 51.065624 144.65312Q50.58125 143.95 49.83125 143.95Q49.1125 143.95 48.675 144.55937Q48.128124 145.34062 48.128124 147.46562ZM54.64375 151.7L54.64375 150.49687L55.846874 150.49687L55.846874 151.7L54.64375 151.7ZM57.05 149.45L58.159374 149.35625Q58.284374 150.16875 58.721874 150.575Q59.175 150.98125 59.815624 150.98125Q60.565624 150.98125 61.096874 150.40312Q61.628124 149.825 61.628124 148.8875Q61.628124 147.98125 61.1125 147.46562Q60.6125 146.93437 59.784374 146.93437Q59.284374 146.93437 58.8625 147.16875Q58.45625 147.40312 58.221874 147.7625L57.2375 147.6375L58.065624 143.23125L62.346874 143.23125L62.346874 144.23125L58.909374 144.23125L58.45625 146.54375Q59.221874 145.99687 60.065624 145.99687Q61.190624 145.99687 61.95625 146.77812Q62.7375 147.55937 62.7375 148.79375Q62.7375 149.95 62.065624 150.80937Q61.2375 151.84062 59.815624 151.84062Q58.64375 151.84062 57.89375 151.18437Q57.159374 150.52812 57.05 149.45ZM64.05 147.46562Q64.05 145.93437 64.3625 145.0125Q64.675 144.075 65.28438 143.575Q65.90938 143.075 66.84688 143.075Q67.53438 143.075 68.05 143.35625Q68.58125 143.6375 68.925 144.16875Q69.26875 144.68437 69.45625 145.43437Q69.64375 146.18437 69.64375 147.46562Q69.64375 148.98125 69.33125 149.90312Q69.03438 150.825 68.40938 151.34062Q67.8 151.84062 66.84688 151.84062Q65.6125 151.84062 64.89375 150.95Q64.05 149.8875 64.05 147.46562ZM65.12813 147.46562Q65.12813 149.575 65.62813 150.27812Q66.12813 150.98125 66.84688 150.98125Q67.58125 150.98125 68.06563 150.27812Q68.56563 149.575 68.56563 147.46562Q68.56563 145.34062 68.06563 144.65312Q67.58125 143.95 66.83125 143.95Q66.1125 143.95 65.675 144.55937Q65.12813 145.34062 65.12813 147.46562Z" fill-rule="nonzero"/><path fill="#000000" d="M47.05 109.09062Q47.05 107.55937 47.3625 106.6375Q47.675 105.7 48.284374 105.2Q48.909374 104.7 49.846874 104.7Q50.534374 104.7 51.05 104.98125Q51.58125 105.2625 51.925 105.79375Q52.26875 106.30937 52.45625 107.05937Q52.64375 107.80937 52.64375 109.09062Q52.64375 110.60625 52.33125 111.52812Q52.034374 112.45 51.409374 112.96562Q50.8 113.46562 49.846874 113.46562Q48.6125 113.46562 47.89375 112.575Q47.05 111.5125 47.05 109.09062ZM48.128124 109.09062Q48.128124 111.2 48.628124 111.90312Q49.128124 112.60625 49.846874 112.60625Q50.58125 112.60625 51.065624 111.90312Q51.565624 111.2 51.565624 109.09062Q51.565624 106.96562 51.065624 106.27812Q50.58125 105.575 49.83125 105.575Q49.1125 105.575 48.675 106.18437Q48.128124 106.96562 48.128124 109.09062ZM54.64375 113.325L54.64375 112.12187L55.846874 112.12187L55.846874 113.325L54.64375 113.325ZM57.1125 105.85625L57.1125 104.84062L62.675 104.84062L62.675 105.66875Q61.8625 106.54375 61.05 107.99687Q60.253124 109.43437 59.815624 110.96562Q59.4875 112.04375 59.409374 113.325L58.315624 113.325Q58.33125 112.30937 58.70625 110.87187Q59.096874 109.43437 59.8 108.10625Q60.51875 106.77812 61.33125 105.85625L57.1125 105.85625ZM64.05 111.075L65.15938 110.98125Q65.28438 111.79375 65.72188 112.2Q66.175 112.60625 66.81563 112.60625Q67.56563 112.60625 68.09688 112.02812Q68.62813 111.45 68.62813 110.5125Q68.62813 109.60625 68.1125 109.09062Q67.6125 108.55937 66.78438 108.55937Q66.28438 108.55937 65.8625 108.79375Q65.45625 109.02812 65.22188 109.3875L64.2375 109.2625L65.06563 104.85625L69.34688 104.85625L69.34688 105.85625L65.90938 105.85625L65.45625 108.16875Q66.22188 107.62187 67.06563 107.62187Q68.19063 107.62187 68.95625 108.40312Q69.7375 109.18437 69.7375 110.41875Q69.7375 111.575 69.06563 112.43437Q68.2375 113.46562 66.81563 113.46562Q65.64375 113.46562 64.89375 112.80937Q64.15938 112.15312 64.05 111.075Z" fill-rule="nonzero"/><path fill="#000000" d="M51.01875 74.95L49.971874 74.95L49.971874 68.23125Q49.58125 68.59062 48.95625 68.96562Q48.346874 69.325 47.8625 69.49687L47.8625 68.48125Q48.7375 68.05937 49.39375 67.48125Q50.065624 66.8875 50.346874 66.325L51.01875 66.325L51.01875 74.95ZM54.64375 74.95L54.64375 73.74687L55.846874 73.74687L55.846874 74.95L54.64375 74.95ZM57.05 70.71562Q57.05 69.18437 57.3625 68.2625Q57.675 67.325 58.284374 66.825Q58.909374 66.325 59.846874 66.325Q60.534374 66.325 61.05 66.60625Q61.58125 66.8875 61.925 67.41875Q62.26875 67.93437 62.45625 68.68437Q62.64375 69.43437 62.64375 70.71562Q62.64375 72.23125 62.33125 73.15312Q62.034374 74.075 61.409374 74.59062Q60.8 75.09062 59.846874 75.09062Q58.6125 75.09062 57.89375 74.2Q57.05 73.1375 57.05 70.71562ZM58.128124 70.71562Q58.128124 72.825 58.628124 73.52812Q59.128124 74.23125 59.846874 74.23125Q60.58125 74.23125 61.065624 73.52812Q61.565624 72.825 61.565624 70.71562Q61.565624 68.59062 61.065624 67.90312Q60.58125 67.2 59.83125 67.2Q59.1125 67.2 58.675 67.80937Q58.128124 68.59062 58.128124 70.71562ZM64.05 70.71562Q64.05 69.18437 64.3625 68.2625Q64.675 67.325 65.28438 66.825Q65.90938 66.325 66.84688 66.325Q67.53438 66.325 68.05 66.60625Q68.58125 66.8875 68.925 67.41875Q69.26875 67.93437 69.45625 68.68437Q69.64375 69.43437 69.64375 70.71562Q69.64375 72.23125 69.33125 73.15312Q69.03438 74.075 68.40938 74.59062Q67.8 75.09062 66.84688 75.09062Q65.6125 75.09062 64.89375 74.2Q64.05 73.1375 64.05 70.71562ZM65.12813 70.71562Q65.12813 72.825 65.62813 73.52812Q66.12813 74.23125 66.84688 74.23125Q67.58125 74.23125 68.06563 73.52812Q68.56563 72.825 68.56563 70.71562Q68.56563 68.59062 68.06563 67.90312Q67.58125 67.2 66.83125 67.2Q66.1125 67.2 65.675 67.80937Q65.12813 68.59062 65.12813 70.71562Z" fill-rule="nonzero"/><path fill="#000000" d="M150.28508 241.45L149.2382 241.45L149.2382 234.73125Q148.84758 235.09062 148.22258 235.46562Q147.6132 235.825 147.12883 235.99687L147.12883 234.98125Q148.00383 234.55937 148.66008 233.98125Q149.33195 233.3875 149.6132 232.825L150.28508 232.825L150.28508 241.45ZM153.31633 237.21562Q153.31633 235.68437 153.62883 234.7625Q153.94133 233.825 154.5507 233.325Q155.1757 232.825 156.1132 232.825Q156.8007 232.825 157.31633 233.10625Q157.84758 233.3875 158.19133 233.91875Q158.53508 234.43437 158.72258 235.18437Q158.91008 235.93437 158.91008 237.21562Q158.91008 238.73125 158.59758 239.65312Q158.3007 240.575 157.6757 241.09062Q157.06633 241.59062 156.1132 241.59062Q154.87883 241.59062 154.16008 240.7Q153.31633 239.6375 153.31633 237.21562ZM154.39445 237.21562Q154.39445 239.325 154.89445 240.02812Q155.39445 240.73125 156.1132 240.73125Q156.84758 240.73125 157.33195 240.02812Q157.83195 239.325 157.83195 237.21562Q157.83195 235.09062 157.33195 234.40312Q156.84758 233.7 156.09758 233.7Q155.37883 233.7 154.94133 234.30937Q154.39445 235.09062 154.39445 237.21562ZM160.31633 237.21562Q160.31633 235.68437 160.62883 234.7625Q160.94133 233.825 161.5507 233.325Q162.1757 232.825 163.1132 232.825Q163.8007 232.825 164.31633 233.10625Q164.84758 233.3875 165.19133 233.91875Q165.53508 234.43437 165.72258 235.18437Q165.91008 235.93437 165.91008 237.21562Q165.91008 238.73125 165.59758 239.65312Q165.3007 240.575 164.6757 241.09062Q164.06633 241.59062 163.1132 241.59062Q161.87883 241.59062 161.16008 240.7Q160.31633 239.6375 160.31633 237.21562ZM161.39445 237.21562Q161.39445 239.325 161.89445 240.02812Q162.39445 240.73125 163.1132 240.73125Q163.84758 240.73125 164.33195 240.02812Q164.83195 239.325 164.83195 237.21562Q164.83195 235.09062 164.33195 234.40312Q163.84758 233.7 163.09758 233.7Q162.37883 233.7 161.94133 234.30937Q161.39445 235.09062 161.39445 237.21562ZM167.31633 237.21562Q167.31633 235.68437 167.62883 234.7625Q167.94133 233.825 168.5507 233.325Q169.1757 232.825 170.1132 232.825Q170.8007 232.825 171.31633 233.10625Q171.84758 233.3875 172.19133 233.91875Q172.53508 234.43437 172.72258 235.18437Q172.91008 235.93437 172.91008 237.21562Q172.91008 238.73125 172.59758 239.65312Q172.3007 240.575 171.6757 241.09062Q171.06633 241.59062 170.1132 241.59062Q168.87883 241.59062 168.16008 240.7Q167.31633 239.6375 167.31633 237.21562ZM168.39445 237.21562Q168.39445 239.325 168.89445 240.02812Q169.39445 240.73125 170.1132 240.73125Q170.84758 240.73125 171.33195 240.02812Q171.83195 239.325 171.83195 237.21562Q171.83195 235.09062 171.33195 234.40312Q170.84758 233.7 170.09758 233.7Q169.37883 233.7 168.94133 234.30937Q168.39445 235.09062 168.39445 237.21562Z" fill-rule="nonzero"/><path fill="#000000" d="M247.35211 240.43437L247.35211 241.45L241.66461 241.45Q241.66461 241.075 241.78961 240.71562Q242.00836 240.1375 242.47711 239.575Q242.96149 239.0125 243.86774 238.27812Q245.27399 237.12187 245.75836 236.45Q246.25836 235.77812 246.25836 235.18437Q246.25836 234.55937 245.80524 234.1375Q245.35211 233.7 244.63336 233.7Q243.86774 233.7 243.41461 234.15312Q242.96149 234.60625 242.94586 235.41875L241.86774 235.30937Q241.97711 234.09062 242.69586 233.46562Q243.43024 232.825 244.66461 232.825Q245.89899 232.825 246.61774 233.5125Q247.33649 234.2 247.33649 235.21562Q247.33649 235.73125 247.11774 236.23125Q246.91461 236.71562 246.41461 237.27812Q245.93024 237.825 244.80524 238.77812Q243.85211 239.575 243.57086 239.87187Q243.30524 240.15312 243.13336 240.43437L247.35211 240.43437ZM248.80524 237.21562Q248.80524 235.68437 249.11774 234.7625Q249.43024 233.825 250.03961 233.325Q250.66461 232.825 251.60211 232.825Q252.28961 232.825 252.80524 233.10625Q253.33649 233.3875 253.68024 233.91875Q254.02399 234.43437 254.21149 235.18437Q254.39899 235.93437 254.39899 237.21562Q254.39899 238.73125 254.08649 239.65312Q253.78961 240.575 253.16461 241.09062Q252.55524 241.59062 251.60211 241.59062Q250.36774 241.59062 249.64899 240.7Q248.80524 239.6375 248.80524 237.21562ZM249.88336 237.21562Q249.88336 239.325 250.38336 240.02812Q250.88336 240.73125 251.60211 240.73125Q252.33649 240.73125 252.82086 240.02812Q253.32086 239.325 253.32086 237.21562Q253.32086 235.09062 252.82086 234.40312Q252.33649 233.7 251.58649 233.7Q250.86774 233.7 250.43024 234.30937Q249.88336 235.09062 249.88336 237.21562ZM255.80524 237.21562Q255.80524 235.68437 256.11774 234.7625Q256.43024 233.825 257.0396 233.325Q257.6646 232.825 258.6021 232.825Q259.2896 232.825 259.80524 233.10625Q260.3365 233.3875 260.68024 233.91875Q261.024 234.43437 261.2115 235.18437Q261.399 235.93437 261.399 237.21562Q261.399 238.73125 261.0865 239.65312Q260.7896 240.575 260.1646 241.09062Q259.55524 241.59062 258.6021 241.59062Q257.36774 241.59062 256.649 240.7Q255.80524 239.6375 255.80524 237.21562ZM256.88336 237.21562Q256.88336 239.325 257.38336 240.02812Q257.88336 240.73125 258.6021 240.73125Q259.3365 240.73125 259.82086 240.02812Q260.32086 239.325 260.32086 237.21562Q260.32086 235.09062 259.82086 234.40312Q259.3365 233.7 258.5865 233.7Q257.86774 233.7 257.43024 234.30937Q256.88336 235.09062 256.88336 237.21562ZM262.80524 237.21562Q262.80524 235.68437 263.11774 234.7625Q263.43024 233.825 264.0396 233.325Q264.6646 232.825 265.6021 232.825Q266.2896 232.825 266.80524 233.10625Q267.3365 233.3875 267.68024 233.91875Q268.024 234.43437 268.2115 235.18437Q268.399 235.93437 268.399 237.21562Q268.399 238.73125 268.0865 239.65312Q267.7896 240.575 267.1646 241.09062Q266.55524 241.59062 265.6021 241.59062Q264.36774 241.59062 263.649 240.7Q262.80524 239.6375 262.80524 237.21562ZM263.88336 237.21562Q263.88336 239.325 264.38336 240.02812Q264.88336 240.73125 265.6021 240.73125Q266.3365 240.73125 266.82086 240.02812Q267.32086 239.325 267.32086 237.21562Q267.32086 235.09062 266.82086 234.40312Q266.3365 233.7 265.5865 233.7Q264.86774 233.7 264.43024 234.30937Q263.88336 235.09062 263.88336 237.21562Z" fill-rule="nonzero"/><path fill="#000000" d="M337.29416 239.18437L338.35666 239.04375Q338.52853 239.93437 338.96603 240.34062Q339.40353 240.73125 340.02853 240.73125Q340.77853 240.73125 341.29416 240.21562Q341.80978 239.7 341.80978 238.93437Q341.80978 238.21562 341.3254 237.74687Q340.85666 237.2625 340.12228 237.2625Q339.8254 237.2625 339.37228 237.3875L339.49728 236.45Q339.60666 236.46562 339.66916 236.46562Q340.34103 236.46562 340.87228 236.12187Q341.41916 235.7625 341.41916 235.02812Q341.41916 234.45 341.02853 234.075Q340.6379 233.68437 340.0129 233.68437Q339.40353 233.68437 338.98166 234.075Q338.5754 234.46562 338.46603 235.23125L337.40353 235.04375Q337.59103 233.99687 338.27853 233.41875Q338.96603 232.825 339.98166 232.825Q340.68478 232.825 341.27853 233.1375Q341.87228 233.43437 342.18478 233.95Q342.49728 234.46562 342.49728 235.05937Q342.49728 235.60625 342.2004 236.075Q341.90353 236.52812 341.3254 236.79375Q342.0754 236.96562 342.49728 237.52812Q342.91916 238.075 342.91916 238.91875Q342.91916 240.04375 342.09103 240.825Q341.27853 241.60625 340.02853 241.60625Q338.90353 241.60625 338.15353 240.93437Q337.40353 240.24687 337.29416 239.18437ZM344.29416 237.21562Q344.29416 235.68437 344.60666 234.7625Q344.91916 233.825 345.52853 233.325Q346.15353 232.825 347.09103 232.825Q347.77853 232.825 348.29416 233.10625Q348.8254 233.3875 349.16916 233.91875Q349.5129 234.43437 349.7004 235.18437Q349.8879 235.93437 349.8879 237.21562Q349.8879 238.73125 349.5754 239.65312Q349.27853 240.575 348.65353 241.09062Q348.04416 241.59062 347.09103 241.59062Q345.85666 241.59062 345.1379 240.7Q344.29416 239.6375 344.29416 237.21562ZM345.37228 237.21562Q345.37228 239.325 345.87228 240.02812Q346.37228 240.73125 347.09103 240.73125Q347.8254 240.73125 348.30978 240.02812Q348.80978 239.325 348.80978 237.21562Q348.80978 235.09062 348.30978 234.40312Q347.8254 233.7 347.0754 233.7Q346.35666 233.7 345.91916 234.30937Q345.37228 235.09062 345.37228 237.21562ZM351.29416 237.21562Q351.29416 235.68437 351.60666 234.7625Q351.91916 233.825 352.52853 233.325Q353.15353 232.825 354.09103 232.825Q354.77853 232.825 355.29416 233.10625Q355.8254 233.3875 356.16916 233.91875Q356.5129 234.43437 356.7004 235.18437Q356.8879 235.93437 356.8879 237.21562Q356.8879 238.73125 356.5754 239.65312Q356.27853 240.575 355.65353 241.09062Q355.04416 241.59062 354.09103 241.59062Q352.85666 241.59062 352.1379 240.7Q351.29416 239.6375 351.29416 237.21562ZM352.37228 237.21562Q352.37228 239.325 352.87228 240.02812Q353.37228 240.73125 354.09103 240.73125Q354.8254 240.73125 355.30978 240.02812Q355.80978 239.325 355.80978 237.21562Q355.80978 235.09062 355.30978 234.40312Q354.8254 233.7 354.0754 233.7Q353.35666 233.7 352.91916 234.30937Q352.37228 235.09062 352.37228 237.21562ZM358.29416 237.21562Q358.29416 235.68437 358.60666 234.7625Q358.91916 233.825 359.52853 233.325Q360.15353 232.825 361.09103 232.825Q361.77853 232.825 362.29416 233.10625Q362.8254 233.3875 363.16916 233.91875Q363.5129 234.43437 363.7004 235.18437Q363.8879 235.93437 363.8879 237.21562Q363.8879 238.73125 363.5754 239.65312Q363.27853 240.575 362.65353 241.09062Q362.04416 241.59062 361.09103 241.59062Q359.85666 241.59062 359.1379 240.7Q358.29416 239.6375 358.29416 237.21562ZM359.37228 237.21562Q359.37228 239.325 359.87228 240.02812Q360.37228 240.73125 361.09103 240.73125Q361.8254 240.73125 362.30978 240.02812Q362.80978 239.325 362.80978 237.21562Q362.80978 235.09062 362.30978 234.40312Q361.8254 233.7 361.0754 233.7Q360.35666 233.7 359.91916 234.30937Q359.37228 235.09062 359.37228 237.21562Z" fill-rule="nonzero"/><path fill="#000000" d="M436.15805 241.45L436.15805 239.3875L432.4393 239.3875L432.4393 238.41875L436.36118 232.85625L437.22055 232.85625L437.22055 238.41875L438.3768 238.41875L438.3768 239.3875L437.22055 239.3875L437.22055 241.45L436.15805 241.45ZM436.15805 238.41875L436.15805 234.55937L433.47055 238.41875L436.15805 238.41875ZM439.78305 237.21562Q439.78305 235.68437 440.09555 234.7625Q440.40805 233.825 441.01743 233.325Q441.64243 232.825 442.57993 232.825Q443.26743 232.825 443.78305 233.10625Q444.3143 233.3875 444.65805 233.91875Q445.0018 234.43437 445.1893 235.18437Q445.3768 235.93437 445.3768 237.21562Q445.3768 238.73125 445.0643 239.65312Q444.76743 240.575 444.14243 241.09062Q443.53305 241.59062 442.57993 241.59062Q441.34555 241.59062 440.6268 240.7Q439.78305 239.6375 439.78305 237.21562ZM440.86118 237.21562Q440.86118 239.325 441.36118 240.02812Q441.86118 240.73125 442.57993 240.73125Q443.3143 240.73125 443.79868 240.02812Q444.29868 239.325 444.29868 237.21562Q444.29868 235.09062 443.79868 234.40312Q443.3143 233.7 442.5643 233.7Q441.84555 233.7 441.40805 234.30937Q440.86118 235.09062 440.86118 237.21562ZM446.78305 237.21562Q446.78305 235.68437 447.09555 234.7625Q447.40805 233.825 448.01743 233.325Q448.64243 232.825 449.57993 232.825Q450.26743 232.825 450.78305 233.10625Q451.3143 233.3875 451.65805 233.91875Q452.0018 234.43437 452.1893 235.18437Q452.3768 235.93437 452.3768 237.21562Q452.3768 238.73125 452.0643 239.65312Q451.76743 240.575 451.14243 241.09062Q450.53305 241.59062 449.57993 241.59062Q448.34555 241.59062 447.6268 240.7Q446.78305 239.6375 446.78305 237.21562ZM447.86118 237.21562Q447.86118 239.325 448.36118 240.02812Q448.86118 240.73125 449.57993 240.73125Q450.3143 240.73125 450.79868 240.02812Q451.29868 239.325 451.29868 237.21562Q451.29868 235.09062 450.79868 234.40312Q450.3143 233.7 449.5643 233.7Q448.84555 233.7 448.40805 234.30937Q447.86118 235.09062 447.86118 237.21562ZM453.78305 237.21562Q453.78305 235.68437 454.09555 234.7625Q454.40805 233.825 455.01743 233.325Q455.64243 232.825 456.57993 232.825Q457.26743 232.825 457.78305 233.10625Q458.3143 233.3875 458.65805 233.91875Q459.0018 234.43437 459.1893 235.18437Q459.3768 235.93437 459.3768 237.21562Q459.3768 238.73125 459.0643 239.65312Q458.76743 240.575 458.14243 241.09062Q457.53305 241.59062 456.57993 241.59062Q455.34555 241.59062 454.6268 240.7Q453.78305 239.6375 453.78305 237.21562ZM454.86118 237.21562Q454.86118 239.325 455.36118 240.02812Q455.86118 240.73125 456.57993 240.73125Q457.3143 240.73125 457.79868 240.02812Q458.29868 239.325 458.29868 237.21562Q458.29868 235.09062 457.79868 234.40312Q457.3143 233.7 456.5643 233.7Q455.84555 233.7 455.40805 234.30937Q454.86118 235.09062 454.86118 237.21562Z" fill-rule="nonzero"/><path stroke="#4285f4" stroke-width="4.0" stroke-linecap="butt" d="M120.0 47.25L132.0 47.25" fill-rule="nonzero"/><path fill="#1a1a1a" d="M140.875 51.25L140.875 42.65625L142.01562 42.65625L142.01562 50.234375L146.25 50.234375L146.25 51.25L140.875 51.25ZM147.40625 48.140625Q147.40625 46.40625 148.35938 45.578125Q149.15625 44.890625 150.3125 44.890625Q151.59375 44.890625 152.40625 45.734375Q153.23438 46.5625 153.23438 48.046875Q153.23438 49.25 152.875 49.9375Q152.51562 50.625 151.8125 51.015625Q151.125 51.390625 150.3125 51.390625Q149.01562 51.390625 148.20312 50.5625Q147.40625 49.71875 147.40625 48.140625ZM148.48438 48.140625Q148.48438 49.328125 149.0 49.921875Q149.53125 50.515625 150.3125 50.515625Q151.10938 50.515625 151.625 49.921875Q152.14062 49.328125 152.14062 48.109375Q152.14062 46.953125 151.60938 46.359375Q151.09375 45.765625 150.3125 45.765625Q149.53125 45.765625 149.0 46.359375Q148.48438 46.9375 148.48438 48.140625ZM158.85938 48.96875L159.89062 49.109375Q159.71875 50.171875 159.01562 50.78125Q158.3125 51.390625 157.29688 51.390625Q156.01562 51.390625 155.23438 50.5625Q154.46875 49.71875 154.46875 48.15625Q154.46875 47.15625 154.79688 46.40625Q155.14062 45.640625 155.8125 45.265625Q156.5 44.890625 157.3125 44.890625Q158.3125 44.890625 158.95312 45.40625Q159.60938 45.90625 159.79688 46.859375L158.76562 47.015625Q158.625 46.390625 158.25 46.078125Q157.875 45.75 157.34375 45.75Q156.54688 45.75 156.04688 46.328125Q155.54688 46.890625 155.54688 48.125Q155.54688 49.390625 156.03125 49.953125Q156.51562 50.515625 157.28125 50.515625Q157.90625 50.515625 158.3125 50.140625Q158.73438 49.765625 158.85938 48.96875ZM164.85938 50.484375Q164.26562 50.984375 163.71875 51.1875Q163.1875 51.390625 162.5625 51.390625Q161.53125 51.390625 160.98438 50.890625Q160.4375 50.390625 160.4375 49.609375Q160.4375 49.15625 160.64062 48.78125Q160.84375 48.390625 161.1875 48.171875Q161.53125 47.9375 161.95312 47.828125Q162.25 47.734375 162.89062 47.65625Q164.15625 47.515625 164.76562 47.296875Q164.76562 47.078125 164.76562 47.03125Q164.76562 46.375 164.46875 46.109375Q164.0625 45.765625 163.26562 45.765625Q162.53125 45.765625 162.17188 46.03125Q161.8125 46.28125 161.64062 46.9375L160.60938 46.796875Q160.75 46.140625 161.07812 45.734375Q161.40625 45.328125 162.01562 45.109375Q162.625 44.890625 163.42188 44.890625Q164.21875 44.890625 164.71875 45.078125Q165.21875 45.265625 165.45312 45.546875Q165.6875 45.828125 165.78125 46.265625Q165.82812 46.53125 165.82812 47.234375L165.82812 48.640625Q165.82812 50.109375 165.89062 50.5Q165.96875 50.890625 166.17188 51.25L165.0625 51.25Q164.90625 50.921875 164.85938 50.484375ZM164.76562 48.125Q164.1875 48.359375 163.04688 48.53125Q162.39062 48.625 162.125 48.75Q161.85938 48.859375 161.70312 49.078125Q161.5625 49.296875 161.5625 49.578125Q161.5625 50.0 161.875 50.28125Q162.20312 50.5625 162.8125 50.5625Q163.42188 50.5625 163.89062 50.296875Q164.375 50.03125 164.59375 49.5625Q164.76562 49.203125 164.76562 48.515625L164.76562 48.125ZM167.76562 51.25L167.76562 42.65625L168.82812 42.65625L168.82812 51.25L167.76562 51.25Z" fill-rule="nonzero"/><path stroke="#ea4335" stroke-width="4.0" stroke-linecap="butt" d="M186.0 47.25L198.0 47.25" fill-rule="nonzero"/><path fill="#1a1a1a" d="M210.95312 47.875L210.95312 46.875L214.57812 46.859375L214.57812 50.046875Q213.75 50.71875 212.85938 51.0625Q211.96875 51.390625 211.03125 51.390625Q209.76562 51.390625 208.71875 50.859375Q207.6875 50.3125 207.15625 49.296875Q206.64062 48.265625 206.64062 47.0Q206.64062 45.734375 207.15625 44.65625Q207.6875 43.5625 208.67188 43.046875Q209.65625 42.515625 210.9375 42.515625Q211.875 42.515625 212.625 42.8125Q213.375 43.109375 213.79688 43.65625Q214.23438 44.1875 214.45312 45.0625L213.4375 45.34375Q213.23438 44.6875 212.9375 44.3125Q212.65625 43.9375 212.125 43.71875Q211.59375 43.484375 210.95312 43.484375Q210.17188 43.484375 209.59375 43.71875Q209.03125 43.953125 208.67188 44.34375Q208.32812 44.734375 208.14062 45.203125Q207.8125 46.0 207.8125 46.921875Q207.8125 48.078125 208.20312 48.859375Q208.60938 49.625 209.35938 50.0Q210.10938 50.375 210.96875 50.375Q211.70312 50.375 212.40625 50.09375Q213.10938 49.796875 213.46875 49.484375L213.46875 47.875L210.95312 47.875ZM215.375 49.390625L216.40625 49.234375Q216.5 49.859375 216.89062 50.1875Q217.29688 50.515625 218.03125 50.515625Q218.75 50.515625 219.09375 50.234375Q219.45312 49.9375 219.45312 49.53125Q219.45312 49.171875 219.14062 48.96875Q218.92188 48.828125 218.0625 48.609375Q216.90625 48.3125 216.45312 48.109375Q216.01562 47.890625 215.78125 47.515625Q215.54688 47.140625 215.54688 46.671875Q215.54688 46.265625 215.73438 45.90625Q215.92188 45.546875 216.25 45.3125Q216.5 45.140625 216.92188 45.015625Q217.34375 44.890625 217.84375 44.890625Q218.5625 44.890625 219.10938 45.109375Q219.67188 45.3125 219.9375 45.671875Q220.20312 46.03125 220.29688 46.625L219.26562 46.765625Q219.20312 46.296875 218.85938 46.03125Q218.53125 45.75 217.90625 45.75Q217.1875 45.75 216.875 46.0Q216.5625 46.234375 216.5625 46.5625Q216.5625 46.765625 216.6875 46.921875Q216.82812 47.09375 217.09375 47.203125Q217.25 47.265625 218.03125 47.46875Q219.15625 47.78125 219.59375 47.96875Q220.03125 48.15625 220.28125 48.515625Q220.53125 48.875 220.53125 49.421875Q220.53125 49.953125 220.21875 50.421875Q219.92188 50.875 219.34375 51.140625Q218.76562 51.390625 218.03125 51.390625Q216.8125 51.390625 216.17188 50.890625Q215.54688 50.375 215.375 49.390625ZM222.79688 51.25L222.79688 42.65625L223.84375 42.65625L223.84375 45.734375Q224.57812 44.890625 225.70312 44.890625Q226.40625 44.890625 226.90625 45.171875Q227.42188 45.4375 227.64062 45.921875Q227.85938 46.390625 227.85938 47.3125L227.85938 51.25L226.8125 51.25L226.8125 47.3125Q226.8125 46.515625 226.46875 46.15625Q226.125 45.796875 225.5 45.796875Q225.03125 45.796875 224.60938 46.046875Q224.20312 46.28125 224.01562 46.703125Q223.84375 47.109375 223.84375 47.84375L223.84375 51.25L222.79688 51.25ZM233.85938 50.484375Q233.26562 50.984375 232.71875 51.1875Q232.1875 51.390625 231.5625 51.390625Q230.53125 51.390625 229.98438 50.890625Q229.4375 50.390625 229.4375 49.609375Q229.4375 49.15625 229.64062 48.78125Q229.84375 48.390625 230.1875 48.171875Q230.53125 47.9375 230.95312 47.828125Q231.25 47.734375 231.89062 47.65625Q233.15625 47.515625 233.76562 47.296875Q233.76562 47.078125 233.76562 47.03125Q233.76562 46.375 233.46875 46.109375Q233.0625 45.765625 232.26562 45.765625Q231.53125 45.765625 231.17188 46.03125Q230.8125 46.28125 230.64062 46.9375L229.60938 46.796875Q229.75 46.140625 230.07812 45.734375Q230.40625 45.328125 231.01562 45.109375Q231.625 44.890625 232.42188 44.890625Q233.21875 44.890625 233.71875 45.078125Q234.21875 45.265625 234.45312 45.546875Q234.6875 45.828125 234.78125 46.265625Q234.82812 46.53125 234.82812 47.234375L234.82812 48.640625Q234.82812 50.109375 234.89062 50.5Q234.96875 50.890625 235.17188 51.25L234.0625 51.25Q233.90625 50.921875 233.85938 50.484375ZM233.76562 48.125Q233.1875 48.359375 232.04688 48.53125Q231.39062 48.625 231.125 48.75Q230.85938 48.859375 230.70312 49.078125Q230.5625 49.296875 230.5625 49.578125Q230.5625 50.0 230.875 50.28125Q231.20312 50.5625 231.8125 50.5625Q232.42188 50.5625 232.89062 50.296875Q233.375 50.03125 233.59375 49.5625Q233.76562 49.203125 233.76562 48.515625L233.76562 48.125ZM236.78125 51.25L236.78125 45.03125L237.73438 45.03125L237.73438 45.96875Q238.09375 45.3125 238.39062 45.109375Q238.70312 44.890625 239.07812 44.890625Q239.60938 44.890625 240.15625 45.21875L239.79688 46.203125Q239.40625 45.96875 239.03125 45.96875Q238.67188 45.96875 238.39062 46.1875Q238.125 46.390625 238.01562 46.765625Q237.82812 47.328125 237.82812 47.984375L237.82812 51.25L236.78125 51.25ZM245.04688 49.25L246.14062 49.375Q245.89062 50.328125 245.1875 50.859375Q244.48438 51.390625 243.40625 51.390625Q242.04688 51.390625 241.23438 50.546875Q240.4375 49.703125 240.4375 48.1875Q240.4375 46.625 241.25 45.765625Q242.0625 44.890625 243.34375 44.890625Q244.59375 44.890625 245.375 45.734375Q246.17188 46.578125 246.17188 48.125Q246.17188 48.21875 246.17188 48.40625L241.53125 48.40625Q241.59375 49.4375 242.10938 49.984375Q242.625 50.515625 243.40625 50.515625Q243.98438 50.515625 244.39062 50.21875Q244.8125 49.90625 245.04688 49.25ZM241.59375 47.546875L245.0625 47.546875Q245.0 46.75 244.67188 46.359375Q244.15625 45.75 243.35938 45.75Q242.625 45.75 242.125 46.234375Q241.64062 46.71875 241.59375 47.546875Z" fill-rule="nonzero"/><path stroke="#fbbc04" stroke-width="4.0" stroke-linecap="butt" d="M263.0 47.25L275.0 47.25" fill-rule="nonzero"/><path fill="#1a1a1a" d="M286.10938 51.25L286.10938 43.671875L283.28125 43.671875L283.28125 42.65625L290.09375 42.65625L290.09375 43.671875L287.25 43.671875L287.25 51.25L286.10938 51.25ZM290.40625 48.140625Q290.40625 46.40625 291.35938 45.578125Q292.15625 44.890625 293.3125 44.890625Q294.59375 44.890625 295.40625 45.734375Q296.23438 46.5625 296.23438 48.046875Q296.23438 49.25 295.875 49.9375Q295.51562 50.625 294.8125 51.015625Q294.125 51.390625 293.3125 51.390625Q292.01562 51.390625 291.20312 50.5625Q290.40625 49.71875 290.40625 48.140625ZM291.48438 48.140625Q291.48438 49.328125 292.0 49.921875Q292.53125 50.515625 293.3125 50.515625Q294.10938 50.515625 294.625 49.921875Q295.14062 49.328125 295.14062 48.109375Q295.14062 46.953125 294.60938 46.359375Q294.09375 45.765625 293.3125 45.765625Q292.53125 45.765625 292.0 46.359375Q291.48438 46.9375 291.48438 48.140625ZM301.875 51.25L301.875 50.328125Q301.14062 51.390625 299.89062 51.390625Q299.34375 51.390625 298.85938 51.1875Q298.39062 50.96875 298.15625 50.65625Q297.92188 50.328125 297.82812 49.859375Q297.76562 49.5625 297.76562 48.875L297.76562 45.03125L298.82812 45.03125L298.82812 48.484375Q298.82812 49.296875 298.89062 49.59375Q298.98438 50.0 299.29688 50.25Q299.625 50.484375 300.10938 50.484375Q300.57812 50.484375 300.98438 50.25Q301.40625 50.0 301.57812 49.578125Q301.76562 49.15625 301.76562 48.359375L301.76562 45.03125L302.8125 45.03125L302.8125 51.25L301.875 51.25ZM304.78125 51.25L304.78125 45.03125L305.73438 45.03125L305.73438 45.96875Q306.09375 45.3125 306.39062 45.109375Q306.70312 44.890625 307.07812 44.890625Q307.60938 44.890625 308.15625 45.21875L307.79688 46.203125Q307.40625 45.96875 307.03125 45.96875Q306.67188 45.96875 306.39062 46.1875Q306.125 46.390625 306.01562 46.765625Q305.82812 47.328125 305.82812 47.984375L305.82812 51.25L304.78125 51.25ZM308.79688 51.25L308.79688 45.03125L309.73438 45.03125L309.73438 45.90625Q310.42188 44.890625 311.71875 44.890625Q312.28125 44.890625 312.75 45.09375Q313.23438 45.296875 313.46875 45.625Q313.70312 45.953125 313.79688 46.390625Q313.84375 46.6875 313.84375 47.421875L313.84375 51.25L312.79688 51.25L312.79688 47.46875Q312.79688 46.8125 312.67188 46.5Q312.54688 46.1875 312.23438 46.0Q311.92188 45.796875 311.5 45.796875Q310.82812 45.796875 310.32812 46.234375Q309.84375 46.65625 309.84375 47.84375L309.84375 51.25L308.79688 51.25ZM319.85938 50.484375Q319.26562 50.984375 318.71875 51.1875Q318.1875 51.390625 317.5625 51.390625Q316.53125 51.390625 315.98438 50.890625Q315.4375 50.390625 315.4375 49.609375Q315.4375 49.15625 315.64062 48.78125Q315.84375 48.390625 316.1875 48.171875Q316.53125 47.9375 316.95312 47.828125Q317.25 47.734375 317.89062 47.65625Q319.15625 47.515625 319.76562 47.296875Q319.76562 47.078125 319.76562 47.03125Q319.76562 46.375 319.46875 46.109375Q319.0625 45.765625 318.26562 45.765625Q317.53125 45.765625 317.17188 46.03125Q316.8125 46.28125 316.64062 46.9375L315.60938 46.796875Q315.75 46.140625 316.07812 45.734375Q316.40625 45.328125 317.01562 45.109375Q317.625 44.890625 318.42188 44.890625Q319.21875 44.890625 319.71875 45.078125Q320.21875 45.265625 320.45312 45.546875Q320.6875 45.828125 320.78125 46.265625Q320.82812 46.53125 320.82812 47.234375L320.82812 48.640625Q320.82812 50.109375 320.89062 50.5Q320.96875 50.890625 321.17188 51.25L320.0625 51.25Q319.90625 50.921875 319.85938 50.484375ZM319.76562 48.125Q319.1875 48.359375 318.04688 48.53125Q317.39062 48.625 317.125 48.75Q316.85938 48.859375 316.70312 49.078125Q316.5625 49.296875 316.5625 49.578125Q316.5625 50.0 316.875 50.28125Q317.20312 50.5625 317.8125 50.5625Q318.42188 50.5625 318.89062 50.296875Q319.375 50.03125 319.59375 49.5625Q319.76562 49.203125 319.76562 48.515625L319.76562 48.125ZM322.79688 51.25L322.79688 45.03125L323.73438 45.03125L323.73438 45.90625Q324.03125 45.4375 324.51562 45.171875Q325.0 44.890625 325.625 44.890625Q326.3125 44.890625 326.75 45.171875Q327.20312 45.453125 327.375 45.96875Q328.125 44.890625 329.29688 44.890625Q330.23438 44.890625 330.71875 45.40625Q331.21875 45.90625 331.21875 46.984375L331.21875 51.25L330.17188 51.25L330.17188 47.328125Q330.17188 46.703125 330.0625 46.421875Q329.96875 46.140625 329.70312 45.96875Q329.4375 45.796875 329.0625 45.796875Q328.40625 45.796875 327.96875 46.234375Q327.54688 46.671875 327.54688 47.640625L327.54688 51.25L326.48438 51.25L326.48438 47.203125Q326.48438 46.5 326.21875 46.15625Q325.96875 45.796875 325.39062 45.796875Q324.9375 45.796875 324.5625 46.03125Q324.1875 46.265625 324.01562 46.71875Q323.84375 47.171875 323.84375 48.015625L323.84375 51.25L322.79688 51.25ZM338.04688 49.25L339.14062 49.375Q338.89062 50.328125 338.1875 50.859375Q337.48438 51.390625 336.40625 51.390625Q335.04688 51.390625 334.23438 50.546875Q333.4375 49.703125 333.4375 48.1875Q333.4375 46.625 334.25 45.765625Q335.0625 44.890625 336.34375 44.890625Q337.59375 44.890625 338.375 45.734375Q339.17188 46.578125 339.17188 48.125Q339.17188 48.21875 339.17188 48.40625L334.53125 48.40625Q334.59375 49.4375 335.10938 49.984375Q335.625 50.515625 336.40625 50.515625Q336.98438 50.515625 337.39062 50.21875Q337.8125 49.90625 338.04688 49.25ZM334.59375 47.546875L338.0625 47.546875Q338.0 46.75 337.67188 46.359375Q337.15625 45.75 336.35938 45.75Q335.625 45.75 335.125 46.234375Q334.64062 46.71875 334.59375 47.546875ZM340.79688 51.25L340.79688 45.03125L341.73438 45.03125L341.73438 45.90625Q342.42188 44.890625 343.71875 44.890625Q344.28125 44.890625 344.75 45.09375Q345.23438 45.296875 345.46875 45.625Q345.70312 45.953125 345.79688 46.390625Q345.84375 46.6875 345.84375 47.421875L345.84375 51.25L344.79688 51.25L344.79688 47.46875Q344.79688 46.8125 344.67188 46.5Q344.54688 46.1875 344.23438 46.0Q343.92188 45.796875 343.5 45.796875Q342.82812 45.796875 342.32812 46.234375Q341.84375 46.65625 341.84375 47.84375L341.84375 51.25L340.79688 51.25ZM350.09375 50.3125L350.25 51.234375Q349.79688 51.328125 349.45312 51.328125Q348.875 51.328125 348.5625 51.15625Q348.25 50.96875 348.10938 50.671875Q347.98438 50.375 347.98438 49.421875L347.98438 45.84375L347.21875 45.84375L347.21875 45.03125L347.98438 45.03125L347.98438 43.484375L349.03125 42.859375L349.03125 45.03125L350.09375 45.03125L350.09375 45.84375L349.03125 45.84375L349.03125 49.484375Q349.03125 49.9375 349.07812 50.0625Q349.14062 50.1875 349.26562 50.265625Q349.39062 50.34375 349.625 50.34375Q349.8125 50.34375 350.09375 50.3125Z" fill-rule="nonzero"/><path fill="#000000" d="M15.58125 27.55L15.58125 17.534374L19.33125 17.534374Q20.4875 17.534374 21.175 17.846874Q21.878124 18.14375 22.26875 18.76875Q22.659374 19.39375 22.659374 20.096874Q22.659374 20.7375 22.3 21.3Q21.95625 21.8625 21.253124 22.221874Q22.159374 22.4875 22.64375 23.128124Q23.14375 23.76875 23.14375 24.64375Q23.14375 25.346874 22.846874 25.95625Q22.55 26.565624 22.1125 26.89375Q21.675 27.221874 21.003124 27.39375Q20.346874 27.55 19.39375 27.55L15.58125 27.55ZM16.909374 21.7375L19.065624 21.7375Q19.95625 21.7375 20.33125 21.628124Q20.846874 21.471874 21.096874 21.128124Q21.346874 20.76875 21.346874 20.253124Q21.346874 19.753124 21.1125 19.378124Q20.878124 18.9875 20.425 18.846874Q19.9875 18.70625 18.909374 18.70625L16.909374 18.70625L16.909374 21.7375ZM16.909374 26.3625L19.39375 26.3625Q20.034374 26.3625 20.3 26.315624Q20.753124 26.2375 21.065624 26.05Q21.378124 25.846874 21.565624 25.4875Q21.76875 25.128124 21.76875 24.64375Q21.76875 24.08125 21.471874 23.675Q21.190624 23.253124 20.675 23.096874Q20.175 22.925 19.221874 22.925L16.909374 22.925L16.909374 26.3625ZM29.440624 25.20625L30.721874 25.3625Q30.409374 26.4875 29.596874 27.1125Q28.784374 27.721874 27.51875 27.721874Q25.925 27.721874 24.9875 26.7375Q24.065624 25.753124 24.065624 23.9875Q24.065624 22.14375 25.003124 21.14375Q25.95625 20.128124 27.45625 20.128124Q28.909374 20.128124 29.83125 21.128124Q30.753124 22.1125 30.753124 23.909374Q30.753124 24.01875 30.753124 24.2375L25.33125 24.2375Q25.409374 25.425 26.003124 26.065624Q26.6125 26.70625 27.534374 26.70625Q28.20625 26.70625 28.675 26.346874Q29.159374 25.9875 29.440624 25.20625ZM25.409374 23.221874L29.45625 23.221874Q29.378124 22.3 28.9875 21.846874Q28.409374 21.14375 27.471874 21.14375Q26.6125 21.14375 26.034374 21.70625Q25.471874 22.26875 25.409374 23.221874ZM32.471874 27.55L32.471874 20.284374L33.58125 20.284374L33.58125 21.315624Q34.378124 20.128124 35.89375 20.128124Q36.55 20.128124 37.096874 20.3625Q37.64375 20.596874 37.909374 20.9875Q38.190624 21.3625 38.3 21.89375Q38.378124 22.2375 38.378124 23.08125L38.378124 27.55L37.14375 27.55L37.14375 23.128124Q37.14375 22.378124 37.003124 22.01875Q36.8625 21.64375 36.4875 21.425Q36.128124 21.190624 35.628124 21.190624Q34.846874 21.190624 34.26875 21.690624Q33.70625 22.190624 33.70625 23.58125L33.70625 27.55L32.471874 27.55ZM45.20625 24.89375L46.425 25.05Q46.221874 26.3 45.39375 27.01875Q44.58125 27.721874 43.39375 27.721874Q41.909374 27.721874 41.003124 26.753124Q40.096874 25.76875 40.096874 23.940624Q40.096874 22.76875 40.4875 21.89375Q40.878124 21.003124 41.675 20.565624Q42.471874 20.128124 43.409374 20.128124Q44.58125 20.128124 45.33125 20.721874Q46.096874 21.315624 46.3 22.425L45.1125 22.6125Q44.940624 21.878124 44.503124 21.51875Q44.065624 21.14375 43.45625 21.14375Q42.51875 21.14375 41.940624 21.815624Q41.3625 22.471874 41.3625 23.909374Q41.3625 25.378124 41.925 26.05Q42.4875 26.70625 43.378124 26.70625Q44.1125 26.70625 44.596874 26.26875Q45.08125 25.815624 45.20625 24.89375ZM47.471874 27.55L47.471874 17.534374L48.70625 17.534374L48.70625 21.128124Q49.565624 20.128124 50.878124 20.128124Q51.690624 20.128124 52.284374 20.45625Q52.878124 20.76875 53.128124 21.33125Q53.39375 21.878124 53.39375 22.95625L53.39375 27.55L52.159374 27.55L52.159374 22.95625Q52.159374 22.01875 51.753124 21.6125Q51.3625 21.190624 50.628124 21.190624Q50.08125 21.190624 49.596874 21.471874Q49.1125 21.753124 48.909374 22.2375Q48.70625 22.721874 48.70625 23.58125L48.70625 27.55L47.471874 27.55ZM55.471874 27.55L55.471874 20.284374L56.58125 20.284374L56.58125 21.315624Q56.909374 20.76875 57.471874 20.45625Q58.05 20.128124 58.76875 20.128124Q59.58125 20.128124 60.096874 20.471874Q60.6125 20.8 60.83125 21.39375Q61.690624 20.128124 63.065624 20.128124Q64.14375 20.128124 64.72188 20.721874Q65.31563 21.315624 65.31563 22.565624L65.31563 27.55L64.08125 27.55L64.08125 22.971874Q64.08125 22.2375 63.95625 21.909374Q63.846874 21.58125 63.534374 21.39375Q63.221874 21.190624 62.8 21.190624Q62.034374 21.190624 61.51875 21.70625Q61.01875 22.20625 61.01875 23.33125L61.01875 27.55L59.784374 27.55L59.784374 22.83125Q59.784374 22.01875 59.4875 21.6125Q59.190624 21.190624 58.503124 21.190624Q57.9875 21.190624 57.534374 21.471874Q57.096874 21.7375 56.89375 22.26875Q56.70625 22.784374 56.70625 23.784374L56.70625 27.55L55.471874 27.55ZM71.20625 26.659374Q70.53438 27.2375 69.89375 27.4875Q69.26875 27.721874 68.53438 27.721874Q67.34688 27.721874 66.69063 27.14375Q66.05 26.55 66.05 25.628124Q66.05 25.096874 66.28438 24.659374Q66.53438 24.221874 66.925 23.95625Q67.33125 23.690624 67.81563 23.55Q68.175 23.45625 68.90938 23.3625Q70.40938 23.190624 71.1125 22.940624Q71.1125 22.690624 71.1125 22.628124Q71.1125 21.8625 70.76875 21.565624Q70.3 21.14375 69.3625 21.14375Q68.50313 21.14375 68.08125 21.45625Q67.675 21.753124 67.47188 22.51875L66.26875 22.3625Q66.425 21.58125 66.8 21.1125Q67.19063 20.64375 67.89375 20.39375Q68.6125 20.128124 69.55 20.128124Q70.47188 20.128124 71.05 20.346874Q71.62813 20.565624 71.89375 20.89375Q72.175 21.221874 72.28438 21.7375Q72.34688 22.05 72.34688 22.8625L72.34688 24.503124Q72.34688 26.221874 72.425 26.675Q72.50313 27.128124 72.7375 27.55L71.45625 27.55Q71.26875 27.159374 71.20625 26.659374ZM71.1125 23.909374Q70.44063 24.175 69.09688 24.378124Q68.34688 24.4875 68.01875 24.628124Q67.70625 24.753124 67.53438 25.01875Q67.3625 25.284374 67.3625 25.596874Q67.3625 26.096874 67.7375 26.425Q68.1125 26.753124 68.83125 26.753124Q69.55 26.753124 70.09688 26.440624Q70.64375 26.128124 70.90938 25.58125Q71.1125 25.175 71.1125 24.3625L71.1125 23.909374ZM74.45625 27.55L74.45625 20.284374L75.56563 20.284374L75.56563 21.39375Q75.9875 20.6125 76.34688 20.378124Q76.70625 20.128124 77.14375 20.128124Q77.76875 20.128124 78.40938 20.51875L77.9875 21.659374Q77.53438 21.39375 77.08125 21.39375Q76.675 21.39375 76.34688 21.64375Q76.03438 21.878124 75.89375 22.315624Q75.69063 22.971874 75.69063 23.753124L75.69063 27.55L74.45625 27.55ZM79.4875 27.55L79.4875 17.534374L80.70625 17.534374L80.70625 23.2375L83.62813 20.284374L85.22188 20.284374L82.44063 22.9875L85.50313 27.55L83.97188 27.55L81.58125 23.83125L80.70625 24.675L80.70625 27.55L79.4875 27.55ZM86.81563 21.690624L86.81563 20.284374L88.22188 20.284374L88.22188 21.690624L86.81563 21.690624ZM86.81563 27.55L86.81563 26.14375L88.22188 26.14375L88.22188 27.55L86.81563 27.55ZM99.31563 23.6125L99.31563 22.440624L103.56563 22.440624L103.56563 26.159374Q102.58125 26.940624 101.53438 27.33125Q100.50313 27.721874 99.40938 27.721874Q97.94063 27.721874 96.72188 27.096874Q95.51875 26.45625 94.90938 25.26875Q94.3 24.065624 94.3 22.58125Q94.3 21.128124 94.90938 19.8625Q95.51875 18.58125 96.65938 17.971874Q97.81563 17.3625 99.31563 17.3625Q100.39375 17.3625 101.26875 17.721874Q102.15938 18.065624 102.65938 18.690624Q103.15938 19.315624 103.40938 20.33125L102.22188 20.659374Q101.9875 19.89375 101.64375 19.45625Q101.31563 19.01875 100.69063 18.753124Q100.08125 18.4875 99.31563 18.4875Q98.40938 18.4875 97.7375 18.76875Q97.08125 19.05 96.675 19.503124Q96.26875 19.940624 96.05 20.4875Q95.65938 21.425 95.65938 22.503124Q95.65938 23.846874 96.1125 24.753124Q96.58125 25.64375 97.45625 26.08125Q98.34688 26.51875 99.34688 26.51875Q100.20625 26.51875 101.01875 26.190624Q101.84688 25.8625 102.26875 25.4875L102.26875 23.6125L99.31563 23.6125ZM105.01875 23.925Q105.01875 21.909374 106.14375 20.925Q107.06563 20.128124 108.425 20.128124Q109.90938 20.128124 110.8625 21.1125Q111.81563 22.08125 111.81563 23.815624Q111.81563 25.221874 111.39375 26.034374Q110.97188 26.83125 110.15938 27.284374Q109.3625 27.721874 108.425 27.721874Q106.89375 27.721874 105.95625 26.7375Q105.01875 25.753124 105.01875 23.925ZM106.28438 23.925Q106.28438 25.315624 106.89375 26.01875Q107.50313 26.70625 108.425 26.70625Q109.33125 26.70625 109.94063 26.003124Q110.55 25.3 110.55 23.878124Q110.55 22.534374 109.94063 21.846874Q109.33125 21.14375 108.425 21.14375Q107.50313 21.14375 106.89375 21.83125Q106.28438 22.51875 106.28438 23.925ZM114.6125 27.55L113.47188 27.55L113.47188 17.534374L114.69063 17.534374L114.69063 21.096874Q115.47188 20.128124 116.69063 20.128124Q117.3625 20.128124 117.95625 20.39375Q118.55 20.659374 118.94063 21.159374Q119.33125 21.64375 119.55 22.33125Q119.76875 23.01875 119.76875 23.815624Q119.76875 25.675 118.83125 26.70625Q117.90938 27.721874 116.62813 27.721874Q115.34688 27.721874 114.6125 26.64375L114.6125 27.55ZM114.59688 23.8625Q114.59688 25.175 114.95625 25.753124Q115.53438 26.70625 116.51875 26.70625Q117.33125 26.70625 117.90938 26.003124Q118.50313 25.3 118.50313 23.909374Q118.50313 22.4875 117.94063 21.815624Q117.37813 21.14375 116.58125 21.14375Q115.76875 21.14375 115.175 21.846874Q114.59688 22.534374 114.59688 23.8625ZM121.47188 27.55L121.47188 20.284374L122.58125 20.284374L122.58125 21.315624Q122.90938 20.76875 123.47188 20.45625Q124.05 20.128124 124.76875 20.128124Q125.58125 20.128124 126.09688 20.471874Q126.6125 20.8 126.83125 21.39375Q127.69063 20.128124 129.06563 20.128124Q130.14375 20.128124 130.72188 20.721874Q131.31563 21.315624 131.31563 22.565624L131.31563 27.55L130.08125 27.55L130.08125 22.971874Q130.08125 22.2375 129.95625 21.909374Q129.84688 21.58125 129.53438 21.39375Q129.22188 21.190624 128.8 21.190624Q128.03438 21.190624 127.51875 21.70625Q127.01875 22.20625 127.01875 23.33125L127.01875 27.55L125.78438 27.55L125.78438 22.83125Q125.78438 22.01875 125.4875 21.6125Q125.19063 21.190624 124.50313 21.190624Q123.9875 21.190624 123.53438 21.471874Q123.09688 21.7375 122.89375 22.26875Q122.70625 22.784374 122.70625 23.784374L122.70625 27.55L121.47188 27.55ZM132.4875 27.55L132.4875 17.534374L133.70625 17.534374L133.70625 23.2375L136.62813 20.284374L138.22188 20.284374L135.44063 22.9875L138.50313 27.55L136.97188 27.55L134.58125 23.83125L133.70625 24.675L133.70625 27.55L132.4875 27.55Z" fill-rule="nonzero"/></svg>